<?xml version="1.0" encoding="UTF-8"?>
<svg version="1.1" viewBox="0 0 500 500" xmlns="http://www.w3.org/2000/svg">
 <g transform="matrix(1.3122 0 0 1.3597 -78.123 -90.581)" fill-rule="evenodd">
  <path d="m230.42 67.608c-15.309 1.206-19.119 1.933-36.424 6.95-57.079 16.55-93.511 51.297-116.4 111.02-19.682 51.348-13.842 116.32 14.53 161.63 12.222 19.521 40.88 51.75 47.491 53.409 1.31 0.329 2.382 0.982 2.382 1.451s3.713 3.049 8.25 5.734 10.725 6.441 13.75 8.347c32.336 20.37 84.789 26.247 131.5 14.732 47.231-11.642 84.368-41.265 113.66-90.661 11.076-18.679 13.251-23.407 17.115-37.222 7.73-27.635 9.591-46.524 7.204-73.093-1.99-22.137-12.661-55.358-22.446-69.875-0.939-1.393-4.328-6.582-7.533-11.532-7.493-11.576-19.699-26.655-26.912-33.248-17.617-16.1-48.985-34.604-66.586-39.277-2.475-0.658-5.4-1.564-6.5-2.015-13.302-5.456-47.124-8.395-73.076-6.352m11.576 8.486c-22.963 0.942-45.053 5.307-58.5 11.561-2.75 1.279-5.96 2.33-7.134 2.335-1.173 6e-3 -5.091 2.035-8.706 4.51-3.614 2.475-7.101 4.5-7.748 4.5-1.514 0-7.312 3.518-12.412 7.53-2.2 1.731-6.7 4.764-10 6.741-5.97 3.576-20.682 18.128-25.5 25.225-1.375 2.025-3.663 5.104-5.084 6.843s-3.446 4.736-4.5 6.661-2.887 4.723-4.074 6.217c-7.132 8.981-20.034 41.582-20.59 52.028-0.138 2.61-0.515 4.747-0.835 4.75-0.321 3e-3 -0.644 0.568-0.718 1.255-0.074 0.688-0.863 4.625-1.752 8.75-4.341 20.124 0.633 79 6.674 79 0.484 0 0.879 1.192 0.879 2.65 0 3.859 6.07 19.26 7.392 18.753 0.612-0.235 1.678 0.479 2.369 1.585 1.05 1.682 1.009 2.012-0.253 2.012-0.829 0-1.508 0.284-1.508 0.632 0 0.964 4.268 7.782 5.325 8.506 0.512 0.351 0.648 1.097 0.302 1.657-0.383 0.619 0.17 0.809 1.412 0.485 1.781-0.466 2.016-0.105 1.845 2.843-0.264 4.554 2.933 9.915 15.116 25.345 7.695 9.747 23.078 24.716 24.743 24.077 0.748-0.287 1.105-0.108 0.793 0.397-1.067 1.727 1.234 2.041 2.601 0.355 0.937-1.156 0.973-1.446 0.113-0.93-0.687 0.413-1.263 0.387-1.28-0.058-0.016-0.445-2.972-3.959-6.569-7.809-10.574-11.319-23.401-26.19-23.401-27.131 0-0.479-2.255-4.021-5.012-7.87-2.756-3.849-5.485-8.124-6.064-9.499s-3.054-6.55-5.5-11.5c-2.445-4.95-4.441-9.472-4.435-10.049 6e-3 -0.576-1.734-6.458-3.866-13.069-7.476-23.182-9.397-36.232-8.848-60.112 0.43-18.705 0.74-21.665 3.124-29.77 1.456-4.95 3.304-11.925 4.108-15.5s2.583-9.2 3.954-12.5c1.37-3.3 2.512-6.675 2.538-7.5 0.042-1.366 3.205-7.568 8.747-17.154 1.162-2.01 1.844-3.923 1.516-4.25-0.327-0.328-0.127-0.596 0.445-0.596 0.573 0 3.343-3.488 6.156-7.75s8.035-10.816 11.605-14.563c3.569-3.748 6.387-7.348 6.261-8-0.126-0.653 0.367-1.063 1.095-0.912 0.729 0.151 1.038-0.19 0.687-0.757-0.351-0.568 0.178-1.344 1.176-1.725 0.997-0.38 2.713-1.537 3.813-2.569 1.1-1.033 3.238-2.615 4.75-3.517 1.512-0.901 2.75-1.97 2.75-2.375s2.812-2.376 6.25-4.379c3.438-2.004 7.682-4.726 9.433-6.048 1.751-1.323 3.438-2.405 3.748-2.405s2.757-1.575 5.436-3.5c2.68-1.925 5.505-3.5 6.28-3.5 0.774 0 2.296-0.618 3.38-1.372 1.085-0.755 3.548-1.699 5.473-2.098 1.925-0.4 4.497-1.357 5.715-2.128s3.018-1.406 4-1.412c0.982-5e-3 4.106-1.09 6.943-2.411 9.987-4.65 28.833-7.318 56.342-7.978 8.525-0.204 16.221 7e-3 17.101 0.47 0.881 0.462 7.921 1.764 15.645 2.892s15.948 2.723 18.275 3.544 5.775 1.493 7.664 1.493c2.034 0 3.181 0.408 2.815 1-0.34 0.55-0.029 1.052 0.691 1.115 2.552 0.225 3.351 0.466 7.163 2.159 2.12 0.941 6.845 3.685 10.5 6.098s8.446 5.348 10.646 6.524c16.798 8.973 46.357 38.698 54.157 54.462 2.456 4.963 4.3 7.545 5.275 7.386 1.077-0.175 1.694 1.077 2.193 4.456 0.382 2.585 0.965 5.137 1.296 5.672s1.045 3.313 1.587 6.172c0.946 4.988 0.865 5.337-2.011 8.612-3.431 3.908-3.333 3.376-1.93 10.458a918.79 918.79 0 0 1 1.529 7.886c0.254 1.375 0.728 3.175 1.054 4 0.325 0.825 0.751 2.85 0.946 4.5s0.8 5.025 1.345 7.5 1.179 5.4 1.409 6.5c0.564 2.697 2.028 23.957 2.011 29.202-8e-3 2.311 0.376 3.96 0.853 3.666 0.476-0.295 0.583 0.595 0.236 1.976s-0.154 3.331 0.429 4.334c0.807 1.387 1.082-0.327 1.153-7.178 0.127-12.247 2.031-23.89 3.968-24.264 1.295-0.25 1.46 2.046 1.204 16.829-0.209 12.03 0.052 17.539 0.878 18.533 2.53 3.049-4.441 32.896-10.838 46.402a4168.6 4168.6 0 0 0-7.615 16.178c-1.973 4.223-4.054 7.967-4.624 8.319-0.569 0.352-1.66 2.134-2.423 3.961s-2.945 5.058-4.849 7.182c-1.903 2.123-4.181 5.269-5.061 6.991s-2.863 4.197-4.406 5.5-4.484 4.571-6.536 7.263c-2.051 2.691-3.73 4.551-3.73 4.132s-2.609 1.88-5.798 5.109c-7.232 7.322-13.479 11.659-11.689 8.115 0.348-0.687-0.43-0.012-1.728 1.5s-2.71 2.75-3.137 2.75-1.861 1.288-3.185 2.862c-4.54 5.395-26.101 18.138-30.689 18.138-0.793 0-1.756 0.315-2.141 0.701-1.035 1.035-11.794 4.267-14.261 4.284-2.738 0.019-9.022 2.639-9.957 4.152-1.587 2.568 19.341-2.981 28.624-7.589 2.497-1.24 6.151-2.786 8.12-3.435 3.399-1.122 22.459-13.114 27.144-17.077 5.114-4.327 15.838-12.923 16.49-13.217 1.887-0.851 17.761-18.745 21.437-24.165 2.296-3.385 5.728-8.179 7.627-10.654 1.898-2.475 4.957-7.65 6.797-11.5s4.894-9.674 6.786-12.942 3.198-6.334 2.902-6.813 0.156-1.637 1.003-2.574c0.848-0.937 2.032-3.946 2.632-6.687s2.401-10.384 4.003-16.984c5.053-20.819 5.281-22.976 4.77-45.172-0.509-22.118-1.566-29.238-7.619-51.328-2.817-10.283-10.885-29.912-13.546-32.961-0.739-0.846-2.141-3.111-3.115-5.031-2.16-4.258-6.338-10.163-12.976-18.341a1787.9 1787.9 0 0 1-10-12.454c-2.747-3.458-8.594-9.064-12.994-12.457-4.4-3.394-8.225-6.415-8.5-6.714-2.178-2.362-10.158-7.927-13-9.067-1.925-0.771-5.071-2.462-6.991-3.757-7.873-5.312-33.17-15.218-38.861-15.218-1.005 0-5.388-0.948-9.738-2.108-16.369-4.361-22.224-4.83-47.41-3.798m-7.935 12.485c1.321 1.591 2.935 1.886 2.935 0.538 0-0.486-0.926-1.126-2.057-1.422-1.688-0.441-1.846-0.283-0.878 0.884m-41.842 4.64c-0.871 3.363-2.398 4.363-15.463 10.128-3.157 1.394-7.207 3.945-9 5.669-3.231 3.108-3.181 3.097 5.74-1.308 4.95-2.444 10.125-4.782 11.5-5.195 6.107-1.835 11.294-4.714 9.969-5.532-1.053-0.651-1.082-1.139-0.137-2.278 1.241-1.495 0.62-4.703-0.91-4.703-0.476 0-1.24 1.449-1.699 3.219m-6.723 0.808c-1.865 0.707-1.879 0.808-0.207 1.489 1.936 0.789 3.131 0.173 2.561-1.319-0.195-0.511-1.254-0.587-2.354-0.17m12.25 2.635c0.688 0.278 1.813 0.278 2.5 0 0.688-0.277 0.125-0.504-1.25-0.504s-1.937 0.227-1.25 0.504m-19.75 1.338c-2.387 0.765-2.356 0.805 0.691 0.9 1.755 0.055 3.469-0.35 3.809-0.9 0.711-1.15-0.909-1.15-4.5 0m-21.118 16.879c-2.705 2.127-8.423 5.4-11.326 6.482-1.825 0.681-1.843 0.613-0.29-1.102 1.544-1.707 1.525-1.908-0.288-3.041-2.101-1.312-3.519 1.366-2.803 5.294 0.179 0.979-0.237 1.977-0.925 2.218-0.687 0.24-1.25-0.297-1.25-1.195 0-2.641-7.773 3.302-14.265 10.907-4.44 5.201-5.56 7.187-5.284 9.369 0.298 2.357-0.032 2.801-2.22 2.982-3.759 0.311-3.924 0.968-0.98 3.912l2.645 2.645 2.032-2.425c1.118-1.334 2.977-4.328 4.131-6.653 2.201-4.435 10.675-12.747 14.941-14.654 1.375-0.615 3.586-2.396 4.914-3.957 1.327-1.561 5.56-5.049 9.407-7.75 3.846-2.701 6.308-4.911 5.471-4.911s-2.597 0.845-3.91 1.879m150.63 8.079c-1.801 8.202 0.889 63.042 3.092 63.042 1.1 0 1.399-2.022 1.399-9.453 0-8.512 1.228-14.547 2.961-14.547 0.351 0 0.639-1.563 0.639-3.473 0-2.279 0.816-4.341 2.374-6 4.991-5.312 5.53-3.712 6.523 19.378 0.612 14.24 0.788 15.095 3.097 15.095 1.182 0 1.256-0.412 0.372-2.063-0.706-1.319-1.019-7.926-0.868-18.325 0.26-17.885 0.064-18.793-3.887-18.006-7.295 1.453-10.969-3.454-11.881-15.869-0.332-4.53-1.163-9.336-1.846-10.679l-1.241-2.442-0.734 3.342m-120.48 5.368c0.628 19.17-0.365 21.674-8.591 21.674h-4.562l0.22 12.538c0.121 6.896 0.501 12.712 0.844 12.924 1.151 0.711 1.124 6.758-0.037 8.156-0.887 1.068-0.817 1.382 0.309 1.382 0.801 0 1.485-0.562 1.52-1.25 0.036-0.687 0.308-4.175 0.606-7.75 0.941-11.3 1.034-17.591 0.278-18.814-1.049-1.697 0.962-1.466 2.742 0.314 0.825 0.825 2.32 1.514 3.322 1.532 1.726 0.03 1.73 0.101 0.071 1.36-2.143 1.627-2.329 4.044-0.25 3.246 0.914-0.35 1.5-1e-3 1.5 0.893 0 0.808 0.846 1.469 1.881 1.469 2.25 0 4.047 16.493 2.289 21-0.946 2.425-14.589 16-16.081 16-0.954 0-4.335 3.729-6.572 7.25-2.564 4.036-1.818 3.512 6.747-4.736 4.271-4.112 10.562-9.294 13.981-11.516l6.216-4.039 1.747 2.271c0.961 1.248 1.758 2.652 1.77 3.119s1.574 3.392 3.47 6.5c1.897 3.108 3.585 6.326 3.75 7.151 0.46 2.288 1.918 2.968 6.397 2.985 2.66 0.01 4.609 0.628 5.562 1.765 1.659 1.979 9.293 17.537 10.332 21.054 0.843 2.857 9.617 16.209 11.891 18.096 2.438 2.024 21.033 0.941 23.59-1.373 2.872-2.599 14.381-24.215 17.453-32.777l2.78-7.75h14.863c16.651 0 16.08-0.255 17.406 7.75 1.058 6.386 2.528 5.111 2.528-2.191 0-7.834-0.013-7.843-11.102-7.641-5.804 0.106-8.898-0.213-8.898-0.918 0-2.008 3.843-8.474 7.958-13.391 2.252-2.689 3.838-5.146 3.526-5.459-1.035-1.034-8.422 8.251-11.137 13.996l-2.668 5.646-7.089 0.42c-3.9 0.23-7.248 0.028-7.441-0.45-0.193-0.477-0.966-0.057-1.718 0.935-1.612 2.126-1.851 3.681-0.431 2.803 1.515-0.937 1.215 0.887-1.107 6.713-1.158 2.908-2.745 7.405-3.526 9.994-0.78 2.589-1.864 4.982-2.407 5.318-0.544 0.336-1.941 2.477-3.104 4.758-1.164 2.281-3.728 6.076-5.698 8.432l-3.582 4.285-18.076-0.05-4.665-6.225c-3.869-5.161-11.969-21.163-16.673-32.935-0.917-2.295-1.868-2.815-6.198-3.389-5.165-0.685-8.248-3.658-10.774-10.39-0.38-1.011-2.642-3.918-5.028-6.459l-4.337-4.621 0.166-20.716c0.091-11.393 0.29-25.44 0.443-31.215 0.152-5.775 0.112-8.25-0.09-5.5-0.723 9.862-1.792 10.362-2.328 1.092-0.444-7.66-0.774-8.946-2.353-9.175-1.631-0.236-1.815 0.427-1.635 5.909m32.972-2.35c0 0.613 10.813 0.982 29 0.991 18.501 0.01 29-0.344 29-0.976s-10.509-0.991-29-0.991c-18.197 0-29 0.364-29 0.976m-86.629 2.87c-2.172 1.574-4.781 4.131-5.798 5.683-1.017 1.553-2.983 3.873-4.368 5.157s-2.301 2.551-2.036 2.816c0.265 0.266 4.158-3.192 8.649-7.684 8.791-8.79 9.811-10.505 3.553-5.972m43.925 23.738c2.096 2.215 9.813 4.294 10.387 2.799 0.31-0.808 0.293-1.74-0.037-2.071-0.946-0.945-11.241-1.669-10.35-0.728m-65.946 7.666c0.104 1.929-0.869 5.079-2.395 7.75-4.031 7.058-7.232 14.056-6.682 14.607 0.881 0.88 12.909-22.692 12.338-24.179-1.102-2.871-3.444-1.562-3.261 1.822m284.65 20.368c0 0.55 0.661 1.873 1.468 2.941 0.808 1.067 1.468 1.491 1.468 0.941s-0.66-1.874-1.468-2.941c-0.807-1.068-1.468-1.491-1.468-0.941m-298.75 11.498c-3.214 6.398-4.25 9.618-4.25 13.205 0 2.609-0.652 6.304-1.449 8.211-1.253 2.998-1.255 3.468-0.019 3.468 1.431 0 1.792-1.024 2.998-8.5 0.354-2.2 2.197-8.025 4.093-12.944 4.63-12.007 3.878-13.893-1.373-3.44m308.95-5.916c-1.411 1.411-1.568 2.8-0.317 2.8 0.486 0 1.119-0.9 1.407-2 0.61-2.334 0.514-2.404-1.09-0.8m-238.21 5.05c-2.934 3.731-3.004 3.944-0.575 1.75 2.521-2.279 5.18-6 4.286-6-0.203 0-1.872 1.912-3.711 4.25m239.71 0.816c-3.027 4.211-3.127 10.648-0.21 13.564 0.742 0.742 1.646 2.704 2.01 4.36 0.363 1.655 1.252 3.01 1.974 3.01 1.531 0 2.528 2.179 2.528 5.523 0 1.297 0.391 2.601 0.869 2.896s0.939 3.134 1.025 6.309c0.278 10.251 1.22 12.015 4.605 8.63 2.408-2.407 1.258-19.021-1.957-28.305a517.5 517.5 0 0 1-4.074-12.32c-2.457-7.854-3.395-8.362-6.77-3.667m-95.698-2.221c0 0.465 0.97 1.702 2.155 2.75l2.155 1.905-1.77-2.75c-1.825-2.836-2.54-3.372-2.54-1.905m-163.5 2.214c-3.099 1.976-5.5 4.677-5.5 6.189 0 1.288 3.344-1.304 6.447-4.998 3.134-3.73 3.1-3.772-0.947-1.191m171.5 5.287c3.811 4.027 8.746 7.492 6.096 4.28-0.772-0.936-3.247-3.114-5.5-4.84l-4.096-3.138 3.5 3.698m18.25-1.954c0.962 0.731 1.75 1.611 1.75 1.957 0 1.735 7.214 9.128 11.5 11.784 2.645 1.639 5.219 1.86 21.75 1.863 17.162 4e-3 18.756 0.152 18.82 1.754 0.069 1.72 1.657-0.842 1.86-3 0.038-0.412-8.38-0.75-18.707-0.75-21.185 0-19.199 0.602-30.309-9.193-3.623-3.194-6.998-5.793-7.5-5.775-0.503 0.017-0.126 0.629 0.836 1.36m-184.44 9.131c-2.58 2.462-4.124 4.477-3.43 4.477s2.306-1.238 3.584-2.75a664.06 664.06 0 0 1 3.835-4.5c2.696-3.119 0.817-1.812-3.989 2.773m-37.058 4.22c-13.989 0.615-8.102 1.759 8.5 1.652 20.78-0.134 21.75-0.196 21.75-1.395 0-0.962-11.908-1.063-30.25-0.257m64.218 2.841c-0.54 1.421-0.728 2.996-0.416 3.5 0.971 1.571 3.285 1.004 3.908-0.958 0.668-2.105 4.92-3.098 13.349-3.115 3.282-7e-3 5.073-0.393 4.691-1.011-0.345-0.558-5.019-1-10.584-1-9.796 0-9.982 0.044-10.948 2.584m-59.218 2.09c2.187 1.526 2.252 2.078 2.338 19.698 0.048 9.97 0.416 20.378 0.818 23.128l0.731 5 0.791-3.739c0.789-3.732 0.135-28.787-0.999-38.261-0.563-4.711-2.432-7.568-4.87-7.448-0.583 0.029-0.046 0.759 1.191 1.622m35.25 4.326c-1.754 1.878-3.797 3-5.46 3-1.517 0-2.393 0.429-2.04 1 1.196 1.936 4.086 0.959 8.877-3 3.084-2.549 4.221-4 3.133-4-0.939 0-2.969 1.35-4.51 3m-67.602 1.165c-0.396 0.64-0.931 4.465-1.19 8.5-0.546 8.504 1.193 10.238 2.09 2.085 0.318-2.887 0.887-6.713 1.265-8.5 0.686-3.243-0.652-4.532-2.165-2.085m226.6 6.901c0 3.604 3.482 8.693 11.716 17.121 5.667 5.8 7.11 21.111 1.949 20.682-1.191-0.099-3.944-0.11-6.118-0.025l-3.953 0.156 3.585 3.75c5.096 5.331 5.821 7.225 5.821 15.203 0 8.541-2.925 15.026-9.968 22.097-7.999 8.032-9.005 9.481-9.897 14.259-0.482 2.58-0.685 4.691-0.452 4.691 1.188 0 15.854-13.548 32.687-30.194l18.87-18.661-2.24-3.145c-1.232-1.73-5.566-5.983-9.631-9.452s-8.373-7.598-9.573-9.177-5.66-6.536-9.91-11.016c-5.549-5.847-8.241-9.585-9.542-13.25-1.88-5.291-3.344-6.622-3.344-3.039m-122.84 2.934c0 1.375 0.227 1.938 0.504 1.25 0.278-0.687 0.278-1.812 0-2.5-0.277-0.687-0.504-0.125-0.504 1.25m-15.47 3.036c-0.929 1.325-1.693 2.871-1.699 3.437-5e-3 0.565-2.03 3.718-4.5 7.007-2.693 3.589-4.489 7.044-4.489 8.639 0 2.273-0.536 2.759-3.692 3.351-4.301 0.807-22.745 18.203-22.147 20.888 0.186 0.838 9.49 10.154 20.675 20.701 12.332 11.627 19.712 17.968 18.75 16.108-0.872-1.687-1.586-3.684-1.586-4.437 0-0.754-1.509-3.139-3.353-5.3-10.319-12.094-11.018-22.364-2.189-32.12 5.286-5.842 5.301-5.876 2.972-6.975-1.287-0.607-2.473-0.749-2.635-0.315s-1.408 0.945-2.768 1.135c-2.441 0.341-2.472 0.25-2.471-7.155 2e-3 -7.319 0.105-7.631 4.274-12.904 4.35-5.503 7.488-11.642 6.881-13.462-0.184-0.554-1.095 0.076-2.023 1.402m15.448 3.048c-0.075 0.872-3.114 5.597-6.753 10.5-9.401 12.666-9.419 12.713-1.634 4.416 3.87-4.125 6.846-7.816 6.614-8.203-0.232-0.386 0.829-1.38 2.357-2.209 1.529-0.83 2.249-1.526 1.6-1.548-0.65-0.022-1.376-1.052-1.614-2.29-0.239-1.238-0.495-1.537-0.57-0.666m14.864 0.916c-0.825 0.533-0.997 0.976-0.381 0.985 0.615 8e-3 3.671 2.547 6.79 5.641 6.317 6.267 8.677 6.871 3.01 0.771-1.992-2.143-4.302-4.909-5.135-6.147-1.69-2.512-2.132-2.641-4.284-1.25m-120.42 4c-2.641 13.645 0.068 44.044 4.54 50.938 0.778 1.198 0.871 0.98 0.402-0.938-1.786-7.297-2.768-17.456-3.385-35-0.537-15.277-0.874-18.526-1.557-15m202.67-2.969c-3.603 1.448-2.619 1.698 2.53 0.643 8.493-1.739 11.631-0.448 21.021 8.656 4.634 4.494 9.725 9.925 11.313 12.07l2.886 3.9-0.021-3.9c-0.019-3.439-0.522-4.252-4.25-6.879-2.326-1.638-6.029-4.578-8.229-6.532-9.767-8.677-17.442-11.096-25.25-7.958m-7.647 5.962c-2.128 2.791-3.697 5.241-3.486 5.445 0.681 0.661 8.054-8.426 7.699-9.49-0.189-0.566-2.084 1.254-4.213 4.045m-10.41 10.804c-2.211 1.835-3.122 3.317-2.75 4.474 0.306 0.951 0.787 2.455 1.069 3.342 0.397 1.249 0.823 1.354 1.895 0.465 0.76-0.632 1.767-1.02 2.238-0.863 0.47 0.157 0.938-0.165 1.039-0.715 0.102-0.55-0.461-0.868-1.25-0.706-0.996 0.204-1.434-0.636-1.434-2.75 0-2.039 0.495-3.044 1.5-3.044 0.825 0 1.5-0.675 1.5-1.5 0-1.91 0.099-1.943-3.807 1.297m-49.357-0.113c1.425 2.675 1.537 6.665 0.164 5.816-1.481-0.915-1.213 0.837 0.468 3.059 1.353 1.789 1.471 1.54 1.5-3.187 0.022-3.594-0.465-5.537-1.632-6.5-1.504-1.24-1.552-1.162-0.5 0.812m-47.272 6.023c-0.542 1.425-0.428 1.54 0.56 0.56 0.684-0.679 0.991-1.486 0.683-1.793-0.308-0.308-0.867 0.247-1.243 1.233m-58.171 0.875c0.334 0.87 0.636 2.332 0.67 3.25 0.044 1.137 0.363 0.922 1.002-0.674 0.996-2.484 0.5-4.158-1.231-4.158-0.576 0-0.775 0.712-0.441 1.582m88.607 1.919c0 1.602 18.933 20.899 19.727 20.106 0.295-0.295 1.463-0.04 2.596 0.566 1.134 0.607-2.638-3.486-8.381-9.095-9.67-9.444-13.942-12.992-13.942-11.577m34.998 5.443c-2e-3 1.32 1.214 1.48 8.016 1.056 10.256-0.64 10.066-2.482-0.264-2.556-6.368-0.045-7.75 0.222-7.752 1.5m67.002-1.062c0 0.55 0.45 1.278 1 1.618s1 0.168 1-0.382-0.45-1.278-1-1.618-1-0.168-1 0.382m-4.5 1.118c0.34 0.55 0.816 1 1.059 1s0.441-0.45 0.441-1-0.477-1-1.059-1-0.781 0.45-0.441 1m-114.74 2.976c-1.382 1.087-2.761 2.928-3.066 4.092-0.612 2.342-0.785 2.447 6.258-3.818 3.277-2.915 0.472-3.156-3.192-0.274m117.24 0.024c0 0.55 0.477 1 1.059 1s0.781-0.45 0.441-1-0.816-1-1.059-1-0.441 0.45-0.441 1m-26.37 2.857c-1.412 1.559-1.461 2.038-0.307 2.996 1.621 1.345 5.329-1.989 4.216-3.79-0.946-1.531-1.999-1.318-3.909 0.794m131.02-0.099c-0.258 0.416-0.76 2.554-1.117 4.75-0.356 2.195-0.856 5.004-1.11 6.242-0.317 1.548 0.013 2.25 1.058 2.25 0.835 0 1.519-0.738 1.519-1.64s0.705-2.155 1.566-2.785c2.672-1.954 3.169-9.575 0.625-9.575-1.14 0-2.284 0.341-2.541 0.758m1.35 1.801c0 0.857 0.457 1.276 1.016 0.931 0.559-0.346 0.758-1.047 0.441-1.559-0.857-1.387-1.457-1.129-1.457 0.628m-172.48 17.699c-5.305 5.633-12.386 12.641-15.736 15.572l-6.092 5.331 0.132 14.063c0.073 7.734 0.256 14.11 0.406 14.169 0.151 0.059 14.537-0.039 31.969-0.218l31.696-0.325 0.304-13.108 0.305-13.108-8.436-8.067c-11.077-10.591-11.821-11.359-16.861-17.398-7.109-8.518-6.686-8.592-17.687 3.089m-11.952 0.449c-0.542 1.425-0.428 1.54 0.56 0.56 0.684-0.679 0.991-1.486 0.683-1.793-0.308-0.308-0.867 0.247-1.243 1.233m178.81 1.76c-0.309 0.807-0.37 2.044-0.134 2.75s0.666 0.045 0.956-1.467c0.566-2.953 0.099-3.682-0.822-1.283m-312.81 2.894c2.21 12.189 9.38 29.575 15.934 38.639 1.79 2.475 4.2 6.375 5.357 8.666 1.156 2.291 3.547 5.194 5.311 6.45l3.209 2.285-3.368-4.95c-1.852-2.723-4.808-6.751-6.569-8.951-5.33-6.659-18.435-36.055-18.435-41.353 0-1.116-0.422-2.29-0.937-2.608-0.524-0.324-0.746 0.481-0.502 1.822m311.44 2.639c0 0.55 0.45 1 1 1s1-0.45 1-1-0.45-1-1-1-1 0.45-1 1m-0.505 2.765c-0.553 0.404-1.595 2.535-2.315 4.735s-2.682 7.075-4.361 10.833c-2.413 5.401-2.792 7.078-1.811 8 0.949 0.891 1.351 0.87 1.702-0.089 0.254-0.691 0.917-0.974 1.475-0.63 0.666 0.412 0.658-0.038-0.023-1.312-1.46-2.727-1.063-4.177 2.65-9.679 2.448-3.627 5.214-12.792 3.805-12.608-0.064 9e-3 -0.569 0.346-1.122 0.75m-193.81 17.025c-1.518 1.683-1.883 4.251-2.222 15.612l-0.406 13.598h8.805c9.219 0 10.828 0.465 9.044 2.614-2.166 2.61 0.199 3.503 8.94 3.378 4.76-0.068 8.88-0.082 9.155-0.031 3.127 0.585 49 0.325 49-0.277 0-0.448-0.41-1.581-0.91-2.516-0.501-0.935-1.099-8.025-1.33-15.755-0.395-13.192-0.899-16.412-2.569-16.414-0.38-1e-3 -0.691 5.962-0.691 13.25v13.251l-35.641 0.234c-31.943 0.21-35.782 0.065-37-1.4-0.925-1.112-1.519-5.778-1.859-14.596-0.487-12.613-0.549-12.907-2.316-10.948m176.27 19.296c-0.614 1.147-0.928 2.274-0.697 2.504 0.23 0.23 0.932-0.708 1.559-2.086 1.378-3.024 0.707-3.35-0.862-0.418m-157.81 11.246c-0.87 1.048-0.63 1.278 1.127 1.083 1.228-0.137 3.471-0.286 4.983-0.332 1.512-0.045 2.75-0.533 2.75-1.083 0-1.492-7.582-1.208-8.86 0.332m22.11-0.643c0.963 0.252 2.537 0.252 3.5 0 0.963-0.251 0.175-0.457-1.75-0.457s-2.713 0.206-1.75 0.457m8.145 0.031c1.523 0.388 1.621 0.656 0.5 1.366-0.842 0.533 4.933 0.889 14.555 0.899 12.682 0.012 15.696-0.239 14.711-1.224-0.862-0.862-5.856-1.281-16.45-1.381-8.366-0.078-14.358 0.075-13.316 0.34m-134.36 8.78c-0.014 0.55 2.669 3.925 5.961 7.5s5.989 5.815 5.993 4.978c8e-3 -1.714-5.955-9.349-6.711-8.593-0.268 0.268-1.552-0.721-2.853-2.199-1.301-1.477-2.377-2.236-2.39-1.686m151.82 6.972c-0.252 0.252-18.994 0.508-41.647 0.569-22.654 0.06-41.402 0.454-41.662 0.875-0.261 0.422 14.921 0.977 33.737 1.236 48.363 0.663 70.641 0.49 70.947-0.552 0.302-1.029-0.544-1.165-12.326-1.987-4.724-0.33-8.796-0.394-9.049-0.141m89.407 2.575c-1.738 1.624-3.641 2.953-4.228 2.953-0.588 0-1.961 1.462-3.051 3.25s-1.983 2.89-1.985 2.449c-2e-3 -0.44-1.466 0.587-3.254 2.283s-5.701 4.727-8.697 6.735c-2.996 2.009-4.885 3.839-4.199 4.068 1.53 0.51 8.414-3.949 13.146-8.514 1.925-1.857 6.382-6.058 9.904-9.336 3.523-3.278 6.206-6.158 5.964-6.4-0.242-0.243-1.862 0.888-3.6 2.512m-220.89 10.722c1.588 3.071 4.168 4.771 5.057 3.333 0.488-0.79-2.587-4.036-5.27-5.563-1.004-0.572-0.952-0.023 0.213 2.23m9.892 7.936c0.975 1.101 4.125 3.223 7 4.717 4.825 2.506 5.017 2.537 2.492 0.397-4.334-3.672-11.757-7.672-9.492-5.114m-7.272 9.295c0 0.55 0.477 1 1.059 1s0.781-0.45 0.441-1-0.816-1-1.059-1-0.441 0.45-0.441 1m-3 0.893c0 0.491 0.739 1.176 1.641 1.523 1.373 0.527 1.435 0.38 0.378-0.893-1.44-1.735-2.019-1.916-2.019-0.63m6 0.942c0 0.97 6.003 3.495 6.686 2.812 0.57-0.569-1.962-2.334-4.436-3.092-1.261-0.386-2.25-0.263-2.25 0.28m24.257 2.191c1.639 2.064 4.734 3.654 11.49 5.9 11.484 3.818 14.128 3.942 4.7 0.221-3.879-1.531-9.614-4.17-12.743-5.865l-5.691-3.083 2.244 2.827m148.69-0.717c-1.894 1.24-5.918 3.342-8.943 4.671s-5.928 2.777-6.45 3.218c-1.614 1.362 2.471 0.892 5.296-0.609 1.46-0.776 4.009-1.912 5.666-2.523 3.567-1.316 9.226-5.646 8.431-6.45-0.306-0.31-2.106 0.452-4 1.693m16.303 0.415c-3.223 3.72-2.075 3.921 1.86 0.326 1.932-1.764 2.719-3.024 1.867-2.989-0.81 0.034-2.487 1.232-3.727 2.663m-180.25 7.245c2.475 2.184 5.139 3.985 5.919 4.001 0.781 0.017 3.706 1.314 6.5 2.883 2.795 1.568 6.881 3.43 9.081 4.137s6.528 2.549 9.617 4.095c5.524 2.763 16.9 5.93 21.195 5.9 3.745-0.027 0.12-1.665-12.312-5.565-12.634-3.963-13.882-4.459-19-7.551-3.155-1.906-4.872-2.562-7.309-2.792-0.445-0.043-0.56-0.48-0.256-0.972 0.305-0.493-0.119-1.153-0.941-1.469-0.822-0.315-1.494-0.127-1.494 0.418 0 0.546-1.048 0.305-2.33-0.534-1.281-0.84-2.703-1.188-3.16-0.774-0.457 0.415-0.539 0.243-0.182-0.382s-0.133-1.394-1.089-1.708c-0.957-0.314-3.314-1.265-5.239-2.114l-3.5-1.544 4.5 3.971m6.262-0.279c0.93 0.93 2.026 1.356 2.435 0.946 0.41-0.41 0.083-1.163-0.726-1.675-2.435-1.54-3.516-1.078-1.709 0.729m35.738 4.25c5.268 4.189 28.993 9.35 32.745 7.123 1.487-0.882 1.297-1.046-1.245-1.071-1.65-0.017-4.021-0.049-5.27-0.072-1.248-0.023-4.806-0.914-7.906-1.981-3.101-1.066-6.675-1.939-7.944-1.939-1.268 0-4.685-0.911-7.593-2.024-5.224-2-5.257-2-2.787-0.036m93.544 0.708c-3.826 1.372-9.113 2.751-11.75 3.063-4.65 0.551-5.899 1.488-3.75 2.816 0.574 0.355 1.586 0.2 2.25-0.345 0.663-0.545 4.979-1.798 9.591-2.786 4.613-0.987 9.338-2.59 10.5-3.562 2.793-2.334 1.505-2.181-6.841 0.814m-56.696 7.446c-1.436 0.887 12.106 2.184 18.152 1.738 2.572-0.19 4.286-0.76 4-1.332-0.568-1.137-20.383-1.5-22.152-0.406m53.152-0.094c1.939 1.253 3 1.253 3 0 0-0.55-1.012-0.993-2.25-0.985-1.819 0.013-1.963 0.201-0.75 0.985m-69.954 5.914c-0.742 1.386-0.769 2.086-0.081 2.086 0.569 0 1.035 0.439 1.035 0.975 0 0.558-1.39 0.715-3.25 0.368-2.161-0.404-2.915-0.273-2.25 0.39 2.746 2.738 33.96 5.118 44.5 3.392 4.483-0.734 2.541-0.911-10.5-0.962-17.289-0.066-26.985-2.02-27.013-5.441-0.021-2.618-1.254-3.026-2.441-0.808m48.204 5.117c-3.893 1.565-2.462 2.139 3.5 1.405 8.583-1.057 10.887-2.309 4.25-2.309-3.025 0-6.512 0.407-7.75 0.904" fill="#fafbfb" stroke="#fafbfb"/>
  <path d="m224 68.591c-12.405 1.26-13.688 1.546-33.987 7.58-14.727 4.378-32.35 12.408-42.536 19.381-3.573 2.446-6.847 4.448-7.275 4.448-1.32 0-18.368 15.304-24.6 22.084-7.039 7.658-15.195 18.519-19.085 25.416a377.06 377.06 0 0 1-5.571 9.5c-6.744 11.028-15.736 34.223-19.987 51.559-5.091 20.756-5.789 58.732-1.439 78.323 10.643 47.943 33.828 84.96 72.021 114.99 2.536 1.993 26.547 16.18 32.116 18.975 33.275 16.699 79.019 19.891 124.6 8.693 28.458-6.992 49.771-19.516 79.054-46.455 8.867-8.157 33.094-43.891 41.414-61.083 16.305-33.69 19.641-81.637 8.491-122-10.388-37.603-36.552-75.373-67.502-97.448-18.441-13.153-34.779-21.794-49.21-26.029-4.4-1.291-9.154-2.794-10.565-3.34-12.914-4.999-49.897-7.236-75.935-4.592m22.5 6.495c-11.55 0.365-23.025 1.126-25.5 1.692-2.475 0.565-8.1 1.72-12.5 2.565-7.986 1.536-17.993 4.703-26.5 8.388-2.475 1.072-5.874 2.217-7.554 2.545s-5.438 2.2-8.351 4.16-5.902 3.564-6.643 3.564c-0.74 0-4.407 2.332-8.149 5.183s-9.797 7.042-13.457 9.315c-20.038 12.444-46.242 49.932-56.641 81.033-8.109 24.25-11.841 63.962-7.752 82.469 0.912 4.125 2.28 11.474 3.041 16.332 0.76 4.857 2.086 9.904 2.944 11.214 0.859 1.311 1.562 2.9 1.562 3.53 0 2.102 7.121 20.352 9.919 25.424 1.518 2.75 3.222 6.358 3.788 8.019 1.379 4.049 11.872 19.655 18.174 27.031 2.796 3.273 4.979 6.6 4.851 7.395-0.127 0.794 0.838 1.989 2.147 2.656 1.308 0.666 5.133 3.878 8.5 7.138 8.746 8.466 16.153 14.356 23.621 18.78 3.575 2.118 7.85 4.827 9.5 6.019 2.982 2.156 16.158 8.349 30.5 14.336 26.187 10.933 74.4 13.335 101.5 5.057 22.564-6.893 34.44-11.605 40.909-16.232 1.691-1.209 5.371-3.587 8.177-5.283 2.807-1.696 8.361-5.746 12.342-9 3.982-3.254 9.339-7.542 11.906-9.529 7.746-5.997 21.653-22.363 32.997-38.832 1.305-1.895 3.609-5.945 5.12-9 1.51-3.055 4.653-9.043 6.984-13.305s3.974-7.75 3.65-7.75 0.312-1.681 1.413-3.735c1.101-2.055 2.007-4.642 2.014-5.75 6e-3 -1.108 0.694-4.49 1.528-7.515 6.315-22.913 8.764-57.875 5.357-76.5-0.604-3.3-1.455-8.025-1.892-10.5-1.319-7.476-6.762-27.298-8.374-30.5-0.83-1.65-3.058-6.6-4.951-11-1.892-4.4-5.182-10.747-7.31-14.105-7.453-11.757-11.054-16.907-12.86-18.395-1.002-0.825-4.293-4.65-7.313-8.5-7.328-9.34-13.932-16.149-18.197-18.762-1.925-1.18-6.051-4.371-9.169-7.092-3.118-2.722-7.935-6.118-10.705-7.547-25.12-12.965-38.964-18.421-49.633-19.562-3.846-0.411-8.245-1.394-9.776-2.185-1.53-0.79-5.58-1.805-9-2.254-3.419-0.448-6.892-1.009-7.717-1.246-0.825-0.236-10.95-0.131-22.5 0.234m-9 15.499c-1.65 0.235-6.6 0.89-11 1.455-10.885 1.396-29.227 5.741-33.5 7.934-1.925 0.988-4.625 2.132-6 2.542-5.643 1.684-27.879 13.065-32.984 16.883-3.016 2.255-9.541 8.022-14.5 12.813-4.959 4.792-9.619 9.292-10.357 10-6.882 6.608-24.279 35.209-26.634 43.788-0.378 1.375-1.963 5.65-3.522 9.5s-3.563 10.6-4.452 15c-0.89 4.4-2.039 9.35-2.554 11-3.702 11.856-3.047 55.229 1.012 67.025 1.043 3.033 2.343 7.925 2.887 10.871 6.768 36.61 45.416 82.377 87.8 103.97 5.211 2.655 28.532 10.633 31.082 10.633 1.294 0 3.29 0.501 4.435 1.114 6.89 3.687 48.456 3.96 63.287 0.415 36.357-8.689 68.95-29.535 92.685-59.279 4.36-5.464 7.151-8.221 5.315-5.25-0.34 0.55-0.111 1 0.508 1 0.629 0 0.875-0.793 0.557-1.794-0.363-1.146 1.551-5.236 5.3-11.323 5.543-8.999 13.04-24.379 14.567-29.883 0.382-1.375 1.088-3.4 1.569-4.5s1.595-4.603 2.475-7.785 1.992-5.544 2.471-5.248 0.81-1.825 0.735-4.714c-0.074-2.889 0.474-10.203 1.219-16.253 2.071-16.826 1.012-32.08-3.922-56.484-2.278-11.266-4.746-21.616-5.483-23-0.738-1.384-2.241-4.541-3.341-7.016a6476.5 6476.5 0 0 0-5.086-11.408c-1.698-3.799-2.905-7.089-2.683-7.312 0.222-0.222-0.665-1.557-1.972-2.968-1.307-1.41-2.171-2.897-1.919-3.304s-0.509-1.588-1.69-2.624c-1.182-1.036-1.82-1.321-1.418-0.634 1.848 3.16-0.644 0.524-7.37-7.797-4.023-4.976-8.088-9.589-9.034-10.252s-5.075-4.354-9.176-8.203-9.049-7.898-10.995-8.998c-5.831-3.295-17.754-11.589-18.453-12.837-0.418-0.744-0.167-0.713 0.694 0.087 0.741 0.688 1.82 1.236 2.397 1.22 0.923-0.027-2.149-2.265-3.45-2.513-2.568-0.492-11.975-3.421-24-7.474-19.339-6.518-50.597-10.526-65.5-8.398m68.203 28.152c1.317 0.901 1.622 12.5 0.475 18.034l-0.678 3.271-2.5-1.771c-1.375-0.974-4.035-2.305-5.911-2.959-3.233-1.125-3.067-0.838 3.172 5.5l6.584 6.688 1.422 39.536-4.762 6.061c-2.619 3.333-5.83 8.275-7.136 10.982l-2.374 4.921h-6.966c-6.193 0-6.901-0.194-6.375-1.75 0.675-1.995-0.929-7e-3 -4.233 5.25-1.857 2.953-1.857 2.977 0.033 1.5 1.775-1.386 1.86-1.349 1.118 0.5-0.441 1.1-1.169 3.35-1.616 5-2.339 8.624-4.202 12.839-8.61 19.478-2.665 4.013-5.49 8.3-6.276 9.526-1.227 1.913-2.646 2.326-10 2.915l-8.57 0.685-4.834-5.302c-4.785-5.248-15.105-24.749-16.325-30.847-0.835-4.176-3.895-6.955-7.657-6.955-4.414 0-7.481-2.392-10.107-7.882-1.216-2.54-4.116-6.631-6.446-9.091l-4.236-4.473 0.509-22.027c0.28-12.115 0.655-25.627 0.833-30.027s1e-3 -8.9-0.393-10c-0.642-1.79-0.73-1.737-0.837 0.5-0.106 2.206-0.26 2.09-1.313-0.988-0.657-1.918-1.981-3.639-2.944-3.823-1.588-0.305-1.75 0.773-1.75 11.627 0 14.736-1.007 16.684-8.623 16.684h-4.792l0.55 35-11.975 11.835c-10.814 10.687-12.3 11.816-15.318 11.648-8.833-0.491-36.492 0.143-37.626 0.862-0.706 0.448-0.996 1.564-0.645 2.479 0.351 0.916 1.041 1.416 1.534 1.111 0.492-0.304 0.895 0.599 0.895 2.006 0 3.222 1.229 3.239 4.409 0.059 4.413-4.413 5.083-2.323 0.98 3.057-1.507 1.975-2.356 4.088-2.007 4.996 0.332 0.866-0.091 2.918-0.941 4.56-1.831 3.541-1.161 6.616 2.045 9.387 2.072 1.79 2.235 2.513 1.552 6.888-0.632 4.05-0.452 5.198 1.049 6.699 1.907 1.907 0.228 7.913-2.213 7.913-0.539 0-2.632 1.123-4.652 2.495l-3.672 2.495 0.297 7.755c0.276 7.21 0.518 7.966 3.434 10.755 1.725 1.65 2.451 2.1 1.612 1-1.493-1.96-1.922-9.805-0.607-11.119 0.354-0.354 0.19-1.491-0.364-2.527-0.554-1.035-0.651-1.823-0.215-1.75 4.068 0.681 8.293-0.282 8.293-1.89 0-1.119 0.747-1.785 2-1.785 1.417 0 2 0.666 2 2.285 0 1.257 0.414 2.286 0.92 2.286 1.542 0 2.244-11.628 1.751-29-0.257-9.075-0.498-17.843-0.536-19.484-0.079-3.476 1.318-5.384 2.221-3.031 0.362 0.943 0.208 1.364-0.367 1.008-0.544-0.336-0.989-0.134-0.989 0.448s0.648 1.059 1.441 1.059 1.766 0.526 2.164 1.17c0.486 0.787 0.178 0.961-0.941 0.531-0.915-0.351-1.664-0.202-1.664 0.33 0 0.533 0.563 0.973 1.25 0.978 0.688 4e-3 6.875 0.239 13.75 0.521l12.5 0.514 4.962-4.272c2.73-2.35 6.3-5.735 7.934-7.522 1.635-1.787 3.391-3.25 3.902-3.25 0.512 0-0.696 1.674-2.684 3.721-1.988 2.046-3.604 4.184-3.591 4.75s2.064-1.11 4.558-3.724c2.493-2.613 4.26-5.196 3.924-5.738-0.342-0.554 0.04-0.737 0.87-0.419 1.055 0.405 1.342 0.044 1.002-1.261-0.426-1.637 7.102-9.329 9.13-9.329 0.345 0 2.152-1.164 4.017-2.586 3.963-3.023 4.962-2.635 7.594 2.946 1.073 2.277 3.109 6.078 4.523 8.446l2.571 4.306-11.009-0.175c-13.053-0.208-13.199-0.144-13.218 5.872-0.032 10.085-4.062 21.64-10.324 29.595-1.69 2.147-3.092 5.072-3.117 6.5-0.036 2.154-0.567 2.647-3.111 2.896-2.375 0.232-5.392 2.632-13.354 10.621-11.288 11.327-11.439 11.797-5.335 16.587 1.516 1.19 10.536 9.607 20.046 18.704 9.509 9.098 17.569 16.262 17.911 15.92 0.812-0.811-4.321-10.417-7.284-13.632-3.982-4.321-7.761-13.868-7.638-19.295 0.126-5.495 1.043-7.179 7.611-13.973 5.226-5.405 5.375-5.732 2.61-5.732-1.1 0-2-0.247-2-0.55 0-1.16 3.087-6.451 3.776-6.471 0.398-0.012 3.649-3.621 7.224-8.021 7.326-9.016 10.079-10.356 18.5-9.003 7.527 1.21 21.779 17.573 16.927 19.435-1.139 0.437-1.19 1.036-0.26 3.076 1.353 2.97 3.833 3.378 3.833 0.631 0-1.85 0.13-1.854 4.628-0.147 2.546 0.966 5.043 2.498 5.55 3.404 0.507 0.905 1.612 1.646 2.455 1.646 0.844 0 1.35 0.552 1.125 1.227-0.47 1.409 9.03 9.719 11.148 9.751 2.747 0.043 8.094-4.974 8.094-7.595 0-5.471-1.302-6.27-9.495-5.831-4.128 0.221-7.505 0.016-7.505-0.456 0-1.09 7.844-3.091 12.193-3.111 4.23-0.019 8.343-2.138 8.181-4.214-0.081-1.049 0.443-1.442 1.5-1.123 0.923 0.278 0.725-0.08-0.46-0.829-2.069-1.309-2.06-1.352 1.145-5.508 1.776-2.304 3.526-3.893 3.888-3.531 0.362 0.363 0.398-0.021 0.079-0.852-0.324-0.844 1.852-5.915 4.922-11.47 3.027-5.477 5.773-11.19 6.104-12.697 0.331-1.506 1.017-2.995 1.525-3.309 0.508-0.313 0.923-1.443 0.923-2.511 0-1.212 0.657-1.911 1.75-1.862 0.979 0.044 1.216 0.295 0.539 0.57-1.263 0.513-0.88 5.11 0.738 8.851 2.962 6.852 0.237 20.5-4.093 20.5-0.918 0-2.863 1.805-4.323 4.012-1.461 2.207-3.944 5.161-5.52 6.564-3.581 3.192-2.555 10.053 1.347 9.005 1.134-0.305 2.625-0.56 3.312-0.567 1.82-0.02 1.531-2.758-0.406-3.841-2.018-1.13 0.153-4.72 7.56-12.501 5.893-6.192 8.809-7.672 15.11-7.672 4.988 0 5.312 0.185 13.299 7.631 16.332 15.224 17.303 16.788 11.137 17.944-3.331 0.625-3.43 0.751-1.606 2.028 4.779 3.348 8.156 10.428 8.156 17.102 0 8.368-2.836 13.931-12.397 24.313-6.08 6.603-7.435 8.696-7.906 12.207-0.723 5.39-0.45 5.586 3.337 2.399 1.716-1.443 3.422-2.627 3.793-2.631 0.37-4e-3 10.733-9.891 23.028-21.969l22.354-21.962-4.354-4.915c-2.395-2.703-7.393-7.47-11.105-10.593-3.712-3.124-6.75-6.08-6.75-6.569 0-0.49-3.594-4.582-7.987-9.094-9.768-10.035-12.01-14.412-13.152-25.677-1.033-10.191-0.951-10.12-11.122-9.626-4.383 0.214-8.363 0.145-8.844-0.153-1.272-0.786 3.351-9.213 7.903-14.406l3.919-4.472 6.392 5.413c3.515 2.977 11.387 10.459 17.492 16.628l11.101 11.216 9.399-0.289c5.17-0.159 10.187-0.342 11.149-0.407 1.007-0.068 1.75-0.92 1.75-2.007 0-2.562 3.724-6.934 4.73-5.554 0.655 0.898 6.735 3.817 8.27 3.97 2.494 0.248 6 1.704 6 2.492 0 0.54 0.819 0.981 1.82 0.981 2.222 0 4.18 12.429 4.18 26.53 0 4.842 0.2 8.603 0.445 8.358s0.619-11.062 0.832-24.037l0.387-23.593-6.582-0.622c-3.62-0.342-12.259-0.625-19.197-0.629-14.61-8e-3 -12.855 0.829-27.673-13.208-5.108-4.84-9.666-8.799-10.129-8.799-2.491 0-3.366-6.532-2.811-20.983 0.52-13.523 0.408-14.996-1.251-16.498-1.002-0.907-2.065-1.257-2.361-0.778s-2.156 0.683-4.132 0.452c-4.405-0.514-5.757-2.859-7.317-12.693-2.889-18.22-2.515-16.977-5.211-17.293-1.548-0.182-2.042 0.02-1.297 0.53m-89.624 5.513c-0.043 0.963 0.596 1.75 1.421 1.75s1.5 0.45 1.5 1 0.927 1 2.059 1 1.818 0.39 1.524 0.867c-0.295 0.477 1.588 0.457 4.19-0.045 3.835-0.739 33.599-1.342 36.85-0.746 4.764 0.873 15.248-0.248 14.739-1.576-0.495-1.288-4.866-1.5-30.886-1.5-23.312 0-30.426-0.289-30.814-1.25-0.301-0.747-0.536-0.545-0.583 0.5m-10.815 7.27c0.42 0.463-0.451 2.11-1.937 3.661-1.486 1.55-2.476 2.819-2.201 2.819 1.709 0 5.914-5.853 4.706-6.551-0.733-0.423-0.988-0.391-0.568 0.071m45.008 13.48c0 2.475 0.195 3.488 0.434 2.25 0.238-1.238 0.238-3.262 0-4.5-0.239-1.238-0.434-0.225-0.434 2.25m-40.798 5.39c0.289 2.689 0.526 8.651 0.526 13.25 0 5.635 0.375 8.36 1.15 8.36 1.403 0 0.388-20.615-1.191-24.203-0.792-1.801-0.897-1.241-0.485 2.593m81.156 6.86c-0.954 3.561-0.719 11.511 0.289 9.75 1.369-2.394 2.403-12 1.291-12-0.537 0-1.248 1.012-1.58 2.25m-123.63 14.858c-4.23 4.954-5.174 7.131-1.905 4.392 3.225-2.701 6.902-6.829 6.904-7.75 2e-3 -1.661-1.675-0.534-4.999 3.358m44.189 4.892c-0.027 1.925 0.338 4.4 0.811 5.5 1.143 2.66 1.143-1.509 0-6l-0.763-3-0.048 3.5m79.332 0.25c-0.229 0.688-1.066 3.5-1.862 6.25-0.795 2.75-2.4 7.475-3.566 10.5-1.37 3.554-1.596 4.83-0.64 3.605 1.343-1.72 5.629-13.814 6.86-19.355 0.526-2.37-0.081-3.137-0.792-1m-138.07 10.253c-4.339 1.906-15.521 14.497-12.874 14.497 1.259 0 10.408-8.192 13.478-12.068 1.713-2.162 2.964-3.895 2.78-3.85-0.184 0.044-1.707 0.684-3.384 1.421m179.05 7.497c-0.34 0.55-0.141 1 0.441 1s1.059-0.45 1.059-1-0.198-1-0.441-1-0.719 0.45-1.059 1m-114.5 2.941c0 0.518 0.445 1.216 0.989 1.552 0.566 0.35 0.734-0.051 0.393-0.941-0.665-1.732-1.382-2.049-1.382-0.611m111.5 4.059c-0.34 0.55-0.172 1 0.374 1 0.545 0 1.277 0.9 1.626 2s1.031 2 1.515 2c0.485 0 0.41-1.35-0.165-3-1.07-3.07-2.252-3.776-3.35-2m-135.15 9.705-6.146 0.385-2.655 8.705c-4.015 13.163-6.654 18.886-11.042 23.952-4.91 5.666-6.821 19.253-2.708 19.253 1.592 0 2.171-0.884 2.724-4.16 0.721-4.269 5.452-10.404 6.227-8.078 0.471 1.414 3.54-2.129 7.804-9.01 1.618-2.612 3.28-4.749 3.692-4.75s0.75-2.864 0.75-6.362c0-10.552 0.991-15.744 2.811-14.726 1.187 0.664 1.487 2.329 1.289 7.163-0.234 5.73-0.109 6.176 1.378 4.941 1.384-1.148 1.588-1.139 1.328 0.063-0.201 0.935 0.376 1.3 1.694 1.069 2.859-0.5 3.375-1.853 2.288-6.002-1.369-5.228-1.722-9.226-0.764-8.633 0.454 0.28 0.971-0.237 1.15-1.15 0.275-1.403 0.814-1.249 3.47 0.987 1.73 1.457 3.594 2.648 4.143 2.648 0.84 0 2.268 2.163 2.642 4 0.056 0.275 0.512 1.148 1.013 1.941 0.595 0.94 0.503 1.577-0.265 1.833-0.703 0.235-1.177 2.503-1.177 5.634 0 8.882 11.269 20.271 20.301 20.516l2.801 0.076-2.691-3.527c-1.479-1.94-2.923-3.294-3.208-3.009-0.286 0.285-1.123 0.017-1.861-0.595-0.738-0.613-1.342-0.802-1.342-0.42s-0.735-0.041-1.633-0.939c-1.297-1.297-1.41-2.12-0.551-4.006 1.318-2.893 0.399-6.522-3.929-15.504-1.722-3.575-3.573-7.456-4.111-8.624-0.749-1.624-2.204-2.268-6.18-2.736-2.861-0.336-6.528-0.771-8.149-0.966s-5.713-0.181-9.093 0.031m31.21 0.588c0.376 0.986 0.935 1.541 1.243 1.233 0.308-0.307 1e-3 -1.114-0.683-1.793-0.988-0.98-1.102-0.865-0.56 0.56m-105.51 5.851c-1.788 2.941-1.803 3.249-0.235 4.75 0.922 0.884 2.225 2.281 2.895 3.106 0.988 1.217 1.224 0.32 1.25-4.75 0.036-6.988-1.033-7.836-3.91-3.106m193.05-2.433c-0.059 0.667-1.832 1.676-3.94 2.244-3.18 0.856-5.685 4.045-3.178 4.045 0.983 0 6.011 7.974 6.011 9.532 0 0.814 0.796 1.2 1.996 0.969 1.261-0.243 2.402 0.375 3.1 1.678 0.865 1.617 0.829 1.893-0.166 1.278-0.937-0.58-1.069-0.284-0.503 1.129 0.854 2.133 1.381 4.296 1.496 6.139 0.053 0.846 0.774 0.968 2.327 0.394 1.238-0.458 2.816-0.633 3.508-0.389 2.047 0.719-0.437-4.763-3.729-8.23-2.772-2.92-4.041-6.25-5.907-15.5-0.499-2.475-0.956-3.955-1.015-3.289m-80.633 6.609c0.836 1.275 4.559 4.949 8.273 8.162l6.753 5.843-7.977-8.162c-8.53-8.73-9.428-9.474-7.049-5.843m-120.47 1.18c-0.707 0.852-1.06 1.773-0.785 2.048s1.078-0.196 1.785-1.048 1.06-1.773 0.785-2.048-1.078 0.196-1.785 1.048m151.95 4.25-3.446 3.75 3.75-3.446c2.063-1.896 3.75-3.583 3.75-3.75 0-0.764-0.846-0.044-4.054 3.446m-6.074 5c-1.243 1.586-1.208 1.621 0.378 0.378 0.962-0.755 1.75-1.543 1.75-1.75 0-0.823-0.821-0.294-2.128 1.372m51.128 4.25c0 0.55 0.477 1 1.059 1s0.781-0.45 0.441-1-0.816-1-1.059-1-0.441 0.45-0.441 1m20.453 16.468c-1.077 7.181 1.321 12.971 3.078 7.433 0.799-2.517-0.286-10.632-1.525-11.397-0.483-0.299-1.182 1.485-1.553 3.964m-206.79 0.199c-1.16 1.16-0.723 3.097 0.833 3.695 1.084 0.415 1.5-0.11 1.5-1.893 0-2.401-0.979-3.157-2.333-1.802m76.229 5.642a119.1 119.1 0 0 0-4.609 4.75c-1.218 1.343-3.623 3.791-5.345 5.441-3.095 2.965-6.522 9.253-5.565 10.211 0.272 0.272 4.579-3.377 9.572-8.108 4.992-4.732 9.572-8.603 10.177-8.603 0.604 0 7.557 6.598 15.449 14.663 14.326 14.637 14.353 14.658 15.388 11.934 1.332-3.503 0.281-5.466-5.196-9.704-2.347-1.816-8.542-7.716-13.767-13.112-10.206-10.539-12.039-11.39-16.104-7.472m98.104-1.376c0 0.513-0.788 1.194-1.75 1.514s-4 2.653-6.75 5.184-4.1 4.017-3 3.303c1.1-0.713-0.215 0.809-2.923 3.384s-5.344 4.682-5.857 4.682c-0.514 0-0.656 0.725-0.316 1.611 0.441 1.149 0.188 1.447-0.881 1.036-0.824-0.316-1.395-0.254-1.268 0.139s-1.791 2.689-4.262 5.103-3.593 3.764-2.493 3 2.313-1.826 2.696-2.361c0.399-0.557 0.971-0.256 1.34 0.705 0.829 2.16 7.4-1.876 9.528-5.853 0.752-1.405 3.633-4.391 6.402-6.635s6.228-5.453 7.688-7.132l2.653-3.052 10.611 10.219c10.854 10.455 12.582 11.604 12.582 8.37 0-2.905-4.96-9.017-13.714-16.9-7.581-6.827-10.286-8.488-10.286-6.317m96.118 9.067c-0.08 4.675-0.395 9.625-0.7 11-0.489 2.201-0.417 2.282 0.603 0.678 1.362-2.141 1.887-11.674 0.919-16.678-0.483-2.497-0.718-1.065-0.822 5m-17.156-1.929c-0.763 1.426-0.8 2.956-0.117 4.915 0.546 1.564 0.691 3.163 0.323 3.553-0.367 0.39 0.24 0.431 1.349 0.092 1.367-0.419 2.885 0.186 4.707 1.875 3.439 3.189 4.453 3.187 2.391-6e-3l-3.23-5c-1.118-1.73-1.243-2.5-0.406-2.5 0.664 0 1.42 0.812 1.68 1.804 0.334 1.275 1.492 1.832 3.957 1.902 3.685 0.105 4.341-1.951 0.801-2.508-1.054-0.165-2.9-0.788-4.101-1.383-1.202-0.596-3.155-0.829-4.341-0.519-1.874 0.49-2.077 0.245-1.547-1.866 0.747-2.975 0.028-3.151-1.466-0.359m-173.13 4.679c-1.845 2.184-1.248 5.624 0.838 4.823 0.822-0.315 1.908-0.573 2.413-0.573s0.918-0.675 0.918-1.5-0.45-1.5-1-1.5-1-0.436-1-0.969c0-0.532 0.787-0.715 1.75-0.405 1.477 0.475 1.516 0.394 0.25-0.516-2.026-1.458-2.451-1.393-4.169 0.64m70.318 12.854c-2.181 2.466-0.303 2.994 2.101 0.59 1.588-1.587 1.787-2.183 0.722-2.156-0.809 0.021-2.08 0.726-2.823 1.566m-28.649 5.668c-2.75 2.854-6.46 6.943-8.245 9.087-1.784 2.144-6.67 6.916-10.856 10.605l-7.613 6.707 0.158 13.881c0.086 7.636 0.274 13.999 0.417 14.142 0.537 0.537 37.697 0.178 51.139-0.494l14-0.7-0.377-11.363c-0.274-8.267-0.041-11.569 0.855-12.123 0.834-0.516-2.754-4.762-11.123-13.161-6.795-6.819-14.251-14.526-16.569-17.126-5.223-5.86-5.634-5.841-11.786 0.545m-125.5-0.894c0 0.207 0.787 0.995 1.75 1.75 1.586 1.243 1.621 1.208 0.378-0.378-1.307-1.666-2.128-2.195-2.128-1.372m102.8 8.677c-3.467 3.358-5.776 5.84-5.13 5.513 0.646-0.326 1.321 0.158 1.5 1.076 0.383 1.96 11.826-7.896 11.826-10.185 0-3.139-2.273-2.142-8.196 3.596m-28.804-4.604c0 0.171 1.479 1.439 3.286 2.818 3.002 2.289 3.285 2.343 3.285 0.618 0-1.038-0.019-1.887-0.042-1.887s-1.502-0.419-3.286-0.93c-1.783-0.512-3.243-0.79-3.243-0.619m80 0.734c0 0.778 0.563 2.021 1.25 2.762 1.007 1.085 0.988 1.198-0.1 0.579-1.098-0.624-1.132-0.361-0.184 1.41 0.64 1.197 1.923 2.446 2.849 2.775 0.927 0.329 2.697 1.767 3.934 3.194 1.42 1.639 2.025 1.95 1.643 0.845-0.406-1.171-0.097-1.75 0.934-1.75 0.846 0 1.825 0.9 2.174 2s1.103 2 1.674 2c0.572 0 0.808 0.603 0.526 1.341-1.091 2.841 0.953 3.837 2.628 1.281 1.547-2.361 1.529-2.532-0.318-3.119-1.075-0.341-4.104-3.003-6.732-5.916-5.641-6.252-10.278-9.592-10.278-7.402m-144 5.315c1.292 1.375 2.574 2.5 2.849 2.5s-0.557-1.125-1.849-2.5-2.574-2.5-2.849-2.5 0.557 1.125 1.849 2.5m241.87 1.25c-1.243 1.586-1.208 1.621 0.378 0.378 1.666-1.307 2.195-2.128 1.372-2.128-0.207 0-0.995 0.788-1.75 1.75m-91.872 0.119c0 1.373 2.757 3.333 3.346 2.38 0.289-0.467-0.346-1.393-1.411-2.057-1.064-0.665-1.935-0.81-1.935-0.323m-125 0.509c0 0.207 0.787 0.995 1.75 1.75 1.586 1.243 1.621 1.208 0.378-0.378-1.307-1.666-2.128-2.195-2.128-1.372m56.2 6.822c-1.568 1.568-1.522 3.288 0.124 4.654 0.966 0.802 1.641 0.781 2.5-0.078 1.764-1.764 1.421-2.708-0.829-2.275-1.709 0.329-1.851 0.099-0.965-1.557 1.189-2.223 0.904-2.478-0.83-0.744m132.41-0.017c0.289 0.467 0.944 0.591 1.456 0.274 1.308-0.808 1.161-1.124-0.525-1.124-0.801 0-1.22 0.383-0.931 0.85m2.387 2.192c0 3.947 1.309 7.444 2.602 6.948 0.76-0.292 1.678 0.244 2.042 1.191 0.581 1.515 0.807 1.446 1.892-0.581 1.623-3.034 0.083-7.533-2.849-8.319-3.206-0.86-3.687-0.761-3.687 0.761m-202 2.003c0 0.207 0.787 0.995 1.75 1.75 1.586 1.243 1.621 1.208 0.378-0.378-1.307-1.666-2.128-2.195-2.128-1.372m4.369 3.102c-0.826 2.153-0.155 2.629 1.371 0.972 0.788-0.855 0.877-1.571 0.243-1.963-0.548-0.338-1.275 0.107-1.614 0.991m63.881 6.922c-1.238 1.577-2.25 3.482-2.25 4.233s-0.562 1.375-1.25 1.386c-0.687 0.012-2.594 1.925-4.237 4.25-1.643 2.326-4.492 5.899-6.331 7.939-3.598 3.993-3.857 7.432-1.778 23.54 0.44 3.406 0.313 5.25-0.363 5.25-0.572 0-1.041 0.675-1.041 1.5 0 1.909 104.15 2.933 111.47 1.096 3.637-0.913 3.117-2.102-1.527-3.494-2.229-0.668-4.291-1.976-4.581-2.908-0.453-1.452-1.305-3.463-3.214-7.583-0.226-0.489 0.097-0.575 0.718-0.191 0.659 0.407 1.13 0.035 1.13-0.892 0-0.875-0.788-1.881-1.75-2.236-2.688-0.992-3.218-2.34-3.235-8.232-0.022-8.023 2.048-17.042 3.935-17.141 0.857-0.045 0.342-0.617-1.152-1.281-1.486-0.659-3.802-2.232-5.146-3.495l-2.445-2.297 0.147 13.577 0.146 13.577h-71.43l-1.285-2.25c-0.765-1.339-1.487-7.304-1.785-14.733l-0.5-12.483-2.25 2.868m136.16 0.848-1.905 2.25 2.25-1.905c2.114-1.79 2.705-2.595 1.905-2.595-0.19 0-1.202 1.012-2.25 2.25m-200.9 1.926c1.646 2.021 4.792 4.89 6.992 6.375 5.191 3.506 2.449 0.258-4.992-5.912l-4.992-4.139 2.992 3.676m-44.212 3.46c0.393 0.656-0.16 1.356-1.308 1.657-1.208 0.316-1.989 1.365-1.989 2.672 0 1.184 0.45 1.875 1 1.535s1-0.115 1 0.5 0.419 0.859 0.931 0.543c1.363-0.843 2.346 1.25 2.512 5.352 0.081 1.995 1.354 5.494 2.851 7.835 1.489 2.327 2.706 4.72 2.706 5.318 0 0.626 0.954 0.85 2.25 0.529 1.237-0.307 1.688-0.3 1 0.016-1.938 0.89-1.523 2.097 2.117 6.154 1.852 2.064 3.667 4.715 4.032 5.891 0.965 3.105 9.12 8.455 8.34 5.471-0.304-1.161-0.144-1.86 0.354-1.551 1.855 1.146 0.808-1.644-2.343-6.246-3.709-5.417-6.637-8.231-8.617-8.279-0.834-0.02-1.177-0.757-0.88-1.892 0.365-1.394-0.037-1.832-1.607-1.75-1.599 0.083-2.144-0.545-2.311-2.664-0.121-1.529 0.204-2.512 0.723-2.191 0.518 0.32 0.942 1.305 0.942 2.19 0 0.884 0.286 1.322 0.635 0.973 0.907-0.908-1.572-6.756-4.112-9.699-1.186-1.375-2.984-4.415-3.995-6.756-1.01-2.34-2.529-4.815-3.374-5.5-0.952-0.77-1.278-0.811-0.857-0.108m248.22 2.34c-0.983 1.087-2.248 1.693-2.809 1.346-0.586-0.362-0.716-0.138-0.306 0.526 0.882 1.428 4.083-0.074 4.945-2.32 0.782-2.039 0.319-1.926-1.83 0.448m-155.27 20.524c0.011 2.2 0.216 2.982 0.455 1.738s0.23-3.044-0.02-4-0.446 0.062-0.435 2.262m116.75 7c0 0.825 0.436 1.5 0.969 1.5 0.532 0 0.709-0.675 0.393-1.5-0.317-0.825-0.753-1.5-0.969-1.5s-0.393 0.675-0.393 1.5m-72 1.559c0 0.582 0.45 0.781 1 0.441s1-0.816 1-1.059-0.45-0.441-1-0.441-1 0.477-1 1.059m2.429 5.121c0 1.229 0.741 1.82 2.285 1.82 1.28 0 2.286-0.609 2.286-1.383 0-0.761-1.029-1.58-2.286-1.821-1.704-0.326-2.285 0.027-2.285 1.384m46.571-0.68c0 0.825-0.562 1.507-1.25 1.515-0.833 0.011-0.75 0.339 0.25 0.985 0.825 0.533 2.4 0.945 3.5 0.914 1.843-0.05 1.857-0.111 0.176-0.773-2.502-0.986-2.263-2.509 0.515-3.291 2.17-0.612 2.144-0.657-0.441-0.75-1.822-0.066-2.75 0.406-2.75 1.4" fill="#3dbfdb" stroke="#3dbfdb"/>
  <path d="m236 67.661c-36.323 2.043-74.364 16.051-102 37.559-20.028 15.586-42.66 46.557-52.089 71.28-1.679 4.4-4.11 10.7-5.403 14-9.831 25.087-12.737 69.747-6.378 98 7.026 31.217 18.397 55.454 36.83 78.5 13.426 16.785 31.759 34.429 34.631 33.327 0.924-0.355 1.245-0.063 0.905 0.822-0.346 0.903 1.618 2.548 5.739 4.807 3.446 1.888 8.965 5.179 12.265 7.311 12.996 8.4 33.76 16.488 50.71 19.753 9.357 1.802 31.224 2.88 32.502 1.602 0.342-0.342-2.041-0.631-5.295-0.642-11.222-0.038-36.263-5.242-45.927-9.545-3.295-1.466-7.565-3.242-9.49-3.946-7.345-2.684-19.643-8.916-22.978-11.644-1.913-1.565-3.818-2.845-4.235-2.845-1.438 0-11.3-6.374-15.367-9.931-8.509-7.443-15.891-13.657-19.09-16.069-1.824-1.375-3.618-3.625-3.986-5s-2.959-5.225-5.757-8.555c-5.52-6.57-6.3-7.624-13.064-17.651-2.488-3.688-4.523-7.254-4.523-7.924 0-0.669-1.744-4.852-3.875-9.294s-5.112-11.451-6.623-15.576c-1.512-4.125-3.545-9.525-4.519-12-0.973-2.475-2.086-6.525-2.473-9-0.388-2.475-1.578-9-2.645-14.5-5.984-30.825-0.173-74.732 13.784-104.15 4.033-8.502 16.587-30.145 18.171-31.327 0.384-0.287 1.939-2.436 3.455-4.774 3.526-5.44 22.313-24.983 24.764-25.761 1.024-0.324 2.807-2.119 3.962-3.988 1.338-2.166 2.628-3.195 3.557-2.838 1.43 0.549 4.803-1.189 7.552-3.89 1.772-1.741 9.564-6.915 13.106-8.702 1.494-0.754 2.512-1.7 2.263-2.104-0.609-0.984 3.994-2.688 9.521-3.524 2.475-0.374 6.075-1.464 8-2.421 4.266-2.121 18.844-6.747 25-7.934l4.5-0.867-5.5-0.14c-4.245-0.108-5.102-0.372-3.756-1.156 2.65-1.544 11.192-2.292 13.347-1.169 1.065 0.555 2.793 0.639 3.909 0.191 1.336-0.537 1.502-0.838 0.5-0.905-1.132-0.076-1.035-0.371 0.397-1.202 2.375-1.38 20.761-2.197 21.534-0.958 0.452 0.726 20.171 1.318 39.388 1.182 1.55-0.011 7.112 1.096 12.359 2.459 5.248 1.364 9.717 2.479 9.931 2.479 0.215 0 0.338 0.338 0.273 0.75-0.303 1.916 0.233 2.618 1.032 1.354 0.504-0.796 1.599-1.121 2.548-0.757 0.916 0.351 1.427 1.023 1.137 1.494-0.291 0.47 4.068 2.7 9.686 4.955 18.338 7.361 23.207 9.452 23.715 10.184 0.275 0.397 2.525 1.969 5 3.495s7.062 4.977 10.193 7.669 6.115 4.773 6.631 4.625c0.515-0.148 2.851 1.894 5.191 4.537 2.585 2.921 4.809 4.592 5.671 4.261 0.78-0.299 1.16-0.126 0.844 0.385-0.316 0.51 0.687 2.418 2.228 4.238 1.541 1.821 4.804 5.961 7.252 9.202 2.449 3.24 5.923 7.065 7.721 8.5 1.798 1.434 3.269 2.93 3.269 3.323 0 0.394 2.484 4.566 5.52 9.273 6.84 10.603 16.533 33.033 19.446 45.002 1.204 4.945 2.6 9.487 3.102 10.092 0.503 0.606 0.728 1.289 0.499 1.517-0.228 0.229 0.229 3.562 1.017 7.408 2.977 14.543 3.024 47.313 0.088 61.493-3.762 18.167-6.59 30.08-7.952 33.5-0.658 1.65-1.073 3.385-0.923 3.855 0.15 0.471-0.163 1.381-0.696 2.023-1.166 1.406-6.236 10.701-10.701 19.622-3.049 6.093-4.661 8.597-13.33 20.708-4.309 6.022-22.092 26.292-23.065 26.292-0.399 0-4.275 2.975-8.615 6.612-4.339 3.636-10.365 8.217-13.39 10.18-17.94 11.641-21.218 14.366-11.197 9.307 14.966-7.555 36.266-25.085 48.115-39.599 5.745-7.037 21.082-28.057 21.082-28.893 0-0.247 2.208-4.009 4.907-8.36 11.433-18.434 18.657-39.41 22.299-64.747 1.632-11.354 1.597-39.784-0.061-49-4.489-24.955-13.41-50.571-22.093-63.439-0.95-1.409-4.349-6.611-7.554-11.561-11.846-18.3-25.77-33.725-38.403-42.541-3.077-2.147-7.62-5.337-10.095-7.088-12.683-8.973-33.327-19.396-44.037-22.232-3.005-0.796-6.813-1.972-8.463-2.614-6.23-2.424-22.481-4.942-35.5-5.5-7.425-0.319-15.975-0.714-19-0.877s-7.975-0.158-11 0.013m-47.75 14.028c0.963 0.252 2.537 0.252 3.5 0 0.963-0.251 0.175-0.457-1.75-0.457s-2.713 0.206-1.75 0.457m37.25 10.96c-4.95 0.759-11.25 2.016-14 2.793s-7.25 1.729-10 2.116-6.8 1.723-9 2.969-5.125 2.582-6.5 2.97c-1.375 0.387-8.879 3.842-16.676 7.677-13.119 6.452-14.91 7.681-24 16.47-5.403 5.223-11.186 10.713-12.85 12.2-10.306 9.203-30.474 41.879-30.474 49.374 0 0.76-0.4 1.81-0.889 2.332-3.359 3.587-9.708 31.109-10.842 46.996-1.254 17.566 0.21 40.33 3.221 50.1 1.38 4.481 2.51 9.089 2.51 10.241s1.811 6.856 4.024 12.676c14.445 37.986 45.255 71.692 83.43 91.272 3.795 1.946 20.425 7.885 27.546 9.836 3.025 0.829 7.975 2.239 11 3.132 8.292 2.449 45.158 2.357 57.5-0.144 17.18-3.481 33.6-9.489 43.739-16.005 2.894-1.859 7.286-4.581 9.761-6.048 25.254-14.972 47.452-40.222 62.071-70.606 2.779-5.775 5.568-12.413 6.198-14.75s1.502-4.25 1.938-4.25 0.813-1.238 0.837-2.75 0.745-4.55 1.602-6.75 1.673-5.35 1.813-7c0.141-1.65 0.748-6.375 1.35-10.5 1.982-13.587 2.33-23.347 1.237-34.727-1.33-13.839-7.318-44.184-9.921-50.273-7.83-18.317-11.854-26.304-15.931-31.616-10.69-13.93-16.579-20.604-25.168-28.525-8.764-8.082-11.521-10.049-26.526-18.921-3.85-2.276-8.172-4.959-9.604-5.961-1.433-1.002-4.409-2.307-6.614-2.901s-8.908-2.92-14.896-5.17c-5.987-2.25-14.036-4.491-17.886-4.98a635.08 635.08 0 0 1-13.5-1.888c-9.022-1.385-33.689-1.047-44.5 0.611m55.313 21.034c0.721 0.289 1.584 0.253 1.916-0.079s-0.258-0.568-1.312-0.525c-1.165 0.048-1.402 0.285-0.604 0.604m-6.146 0.984c-0.367 0.366-0.667 1.131-0.667 1.7 0 0.626 0.466 0.567 1.183-0.15 0.651-0.651 0.951-1.416 0.667-1.7s-0.817-0.217-1.183 0.15m-39.667 3.333c0 0.55 0.45 1 1 1s1-0.45 1-1-0.45-1-1-1-1 0.45-1 1m-40.25 1.062c-0.963 0.57-1.768 2.253-1.79 3.738l-0.04 2.7-1.533-2.829c-0.995-1.836-2.063-2.626-3.042-2.25-0.83 0.319-1.697 0.579-1.927 0.579s-0.418 2.552-0.418 5.671c0 3.874-0.525 6.251-1.655 7.5-1.54 1.702-1.54 1.829 0 1.829 1.312 0 1.655 1.003 1.655 4.845 0 6.219-1.974 8.155-8.313 8.155h-4.656l0.04 36.046-23.188 22.826-19.913 0.084c-10.951 0.047-20.488 0.304-21.191 0.573-0.982 0.375-1.163 3.403-0.779 13.059 0.275 6.914 0.137 13.216-0.306 14.003s-0.668 10.914-0.5 22.504l0.306 21.073 3.5 3.072c4.424 3.882 31.659 29.503 34.559 32.51 1.194 1.238 2.422 2.25 2.729 2.25s1.834 1.238 3.393 2.75 9.919 9.47 18.577 17.684c9.061 8.596 15.742 15.705 15.742 16.75 0 0.999 0.646 1.816 1.435 1.816 1.623 0 1.219-15.108-0.597-22.342-1.057-4.21-24.812-28.502-49.771-50.895-10.536-9.453-10.058-7.778-9.575-33.554 0.231-12.295 0.695-23.222 1.031-24.282 0.569-1.794 1.686-1.927 16.134-1.927 15.511 0 15.525-2e-3 18.643-2.75 7.137-6.291 19.85-19.522 18.118-18.857-1.577 0.605-1.511 0.335 0.425-1.726 1.281-1.363 3.043-2.248 3.987-2.001 0.993 0.259 2.894-0.813 4.601-2.594 2.858-2.983 5.523-2.841 5.595 0.3 0.014 0.621 1.589 3.582 3.5 6.582 1.911 2.999 3.475 5.699 3.476 6 1e-3 0.3-4.784 0.403-10.633 0.229s-11.045 0.093-11.547 0.595c-0.501 0.501-1.334 4.996-1.85 9.988-1.11 10.729-3.681 17.815-9.049 24.941-2.158 2.864-3.923 6.078-3.923 7.143 0 1.907-1.806 3.15-4.578 3.15-0.778 0-6.254 4.747-12.168 10.549l-10.754 10.548 5.478 5.202c3.014 2.86 5.365 5.572 5.226 6.025-0.14 0.454 0.133 0.586 0.606 0.294 1.094-0.677 9.461 7.778 8.574 8.665-0.364 0.363 0.547 1.121 2.024 1.682 1.478 0.562 7.095 5.299 12.483 10.528 5.389 5.229 10.302 9.507 10.918 9.507s1.593 0.883 2.171 1.963c1.228 2.294 3.974 1.68 3.498-0.782-0.179-0.925-0.359-2.054-0.401-2.509-0.043-0.456-3.633-4.342-7.98-8.636-8.273-8.173-11.725-14.04-12.776-21.712-0.867-6.322 0.153-8.689 6.807-15.802 5.036-5.383 5.732-6.522 3.987-6.522-3.842 0-2.274-3.073 6.568-12.874 9.819-10.885 10.767-11.454 18.12-10.872 4.829 0.382 5.783 0.893 10.662 5.712 6.109 6.033 9.783 12.053 7.785 12.759-1.821 0.643-1.533 2.72 0.75 5.414 1.827 2.157 2.089 2.213 3.027 0.653 1.142-1.902 3.314-1.491 6.473 1.226 1.1 0.946 3.256 2.017 4.791 2.38s2.542 1.063 2.238 1.555 1.59 2.616 4.209 4.72c2.619 2.105 5.043 4.213 5.387 4.684 0.966 1.325 4.083-0.041 7.762-3.401 3.381-3.088 3.652-4.841 1.576-10.206-0.869-2.246 8.553-2.512 12.683-0.357 3.778 1.971 7.683-2.764 5.202-6.307-1.277-1.823-1.307-2.446-0.19-3.879 9.853-12.63 13.616-15.393 21.218-15.576l5.425-0.131 7.763 7.5c14.639 14.143 16.477 17 10.936 17-3.275 0-3.198 0.311 1.436 5.821 9.835 11.691 7.929 22.424-6.77 38.137-5.309 5.675-7.122 8.364-7.583 11.25-0.538 3.364-2.583 5.504-2.583 2.703 0-0.599-1.385 0.076-3.077 1.5-4.107 3.456-9.181 3.493-12.335 0.089-3.501-3.777-3.588-3.51-3.588 11v13.5h-12.935c-21.737 0-24.868-3.428-3.835-4.198 6.452-0.236 11.93-0.629 12.174-0.873s0.552-6.186 0.684-13.204c0.274-14.615 1.604-11.902-12.588-25.661-4.95-4.8-11.569-11.591-14.709-15.093l-5.709-6.367-6.791 6.448c-3.735 3.546-7.517 7.573-8.404 8.948s-4.899 5.425-8.916 9c-4.016 3.575-10.145 9.28-13.619 12.677-7.073 6.916-8.901 7.825-12.777 6.351-1.479-0.562-2.453-0.639-2.164-0.171 0.29 0.468-0.55 1.341-1.864 1.94-2.801 1.276-3.462 8.783-2.517 28.592 0.291 6.111 0.157 11.633-0.299 12.272-1.644 2.304 2.018 2.511 47.347 2.674 39.674 0.142 46.126 0.371 46.943 1.665 0.63 0.996 0.954 1.08 0.964 0.25 0.011-0.885 2.278-1.271 7.765-1.32 12.524-0.114 11.587 1.705 11.337-21.996-0.252-23.758-0.522-22.61 6.591-27.98 3.028-2.287 9.766-8.397 14.973-13.578 5.34-5.315 9.944-9.126 10.562-8.744 0.603 0.372 0.823 0.236 0.49-0.304-0.334-0.54 2.383-3.872 6.038-7.405 6.905-6.675 6.82-5.7-0.181 2.077-2.969 3.297-2.358 2.896 2.283-1.5 3.485-3.3 7.878-8.383 9.763-11.295l3.427-5.295-2.666-3.495c-1.465-1.922-5.86-6.218-9.766-9.547-8.395-7.155-12.535-12.501-11.994-15.487 0.509-2.803-2.069-5.072-3.971-3.494-1.073 0.891-2.263 0.156-5.589-3.452-5.568-6.041-7.685-11.23-8.541-20.935-0.924-10.47-0.957-10.5-11.628-10.5-4.883 0-8.874-0.338-8.869-0.75 0.022-1.72 6.018-10.966 8.854-13.652 3.115-2.95 6.137-2.499 6.137 0.916 0 0.698 1.16 1.56 2.578 1.916 1.432 0.36 8.55 6.582 16.014 13.999l13.437 13.351 5.236-0.367c2.879-0.201 8.385-0.602 12.235-0.89 8.242-0.617 13.061 0.441 12.861 2.823-0.076 0.91 0.149 1.655 0.5 1.655 0.351 1e-3 1.935 1.116 3.519 2.479 1.585 1.362 3.317 2.207 3.85 1.878 1.461-0.903-0.746 2.855-4.783 8.144-1.976 2.588-3.11 4.408-2.52 4.043s1.073-0.186 1.073 0.396-0.477 1.059-1.059 1.059-0.781 0.45-0.441 1 0.141 1-0.441 1c-1.33 0-1.46 25.816-0.147 29.268 1.335 3.512-0.081 4.908-5.333 5.263-3.717 0.25-5.119 0.886-6.874 3.118-1.213 1.542-5.334 5.739-9.157 9.327-21.932 20.58-43.134 41.361-43.697 42.831-2.134 5.561 1.234 26.015 4.307 26.162 3.822 0.182 37.344-32.362 42.285-41.052l1.943-3.417-5.032 4.508c-7.373 6.605-19.233 17.349-29.52 26.742-9.913 9.052-10.323 9.272-11.212 6-0.481-1.77 0.181-2.89 3.102-5.25 2.042-1.65 7.777-6.983 12.744-11.851 4.968-4.869 11.282-10.658 14.032-12.865 2.75-2.208 6.308-6.013 7.906-8.456 1.885-2.883 3.163-4.025 3.64-3.254 0.677 1.095 6.734-4.415 33.702-30.657l6.252-6.084v-33.666c0-18.517 0.113-34.005 0.25-34.417s-8.839-0.975-19.947-1.25l-20.197-0.5-3.795-3.5c-2.087-1.925-6.723-6.289-10.303-9.697-3.579-3.408-7.746-7.154-9.258-8.323l-2.75-2.125v-17.305c0-19.173-0.221-19.862-6.063-18.946-2.128 0.333-4.136 0.017-5.271-0.831-2.011-1.501-4.626-11.083-4.65-17.039-9e-3 -2.071-0.576-5.558-1.259-7.75l-1.244-3.984h-28.294l-0.42 3.597c-0.358 3.064-0.067 3.731 1.964 4.503 1.311 0.499 7.301 5.701 13.311 11.562 10.156 9.904 10.926 10.925 10.926 14.496 0 4.09-1.447 5.161-2.498 1.85-0.347-1.096-6.734-8.12-14.193-15.609l-13.561-13.616-59.227-0.283-0.518-3-0.519-3-9.992-0.238c-5.575-0.133-10.766 0.221-11.742 0.8m116.25 1.497c0 0.857 0.45 1.281 1 0.941s1-1.041 1-1.559-0.45-0.941-1-0.941-1 0.702-1 1.559m-98.534 7.299c-1.668 1.017-5.537 4.615-8.596 7.996-3.059 3.38-6.069 6.146-6.69 6.146-2.966 0-3.731 5.489-3.602 25.808l0.13 20.309 3.834 3.926c2.109 2.16 5.212 6.516 6.896 9.68 2.962 5.564 3.237 5.786 8.403 6.765 5.247 0.994 9.159 3.987 9.159 7.007 0 2.36 8.161 20.975 10.744 24.505 7.281 9.954 8.936 11 17.408 11 8.742 0 10.991-1.499 16.511-11 1.438-2.475 3.154-5.175 3.813-6 1.45-1.816 5.524-13.931 5.524-16.427 0-1.136-0.519-1.588-1.426-1.24-0.826 0.317-0.246-1.215 1.379-3.643 8.652-12.93 13.769-30.644 14.262-49.375 0.413-15.734 1.44-21.522 2.893-16.305 0.637 2.289 0.701 2.228 0.792-0.76 0.113-3.673-1.273-4.226-3.132-1.25-1.703 2.727-2.972 2.564-13.303-1.702-6.713-2.773-10.785-3.805-16.207-4.109-3.983-0.224-6.994-0.808-6.691-1.298s0.123-0.891-0.401-0.891c-1.684 0-2.486 3.288-3.168 13l-0.668 9.5-0.33-21.776-7.436 0.674c-10.72 0.971-21.389 3.172-26.52 5.47-2.45 1.098-4.889 1.728-5.42 1.4-0.571-0.353-0.678 0.15-0.262 1.234 0.387 1.007 1.128 9.293 1.648 18.414 1.217 21.327 3.387 29.119 12.836 46.084 2.297 4.125 3.22 6.375 2.051 5-2.893-3.403-10.047-17.855-13.365-27-2.241-6.179-2.891-10.23-3.687-23-0.532-8.525-1.349-17.22-1.816-19.322-0.648-2.92-0.553-3.709 0.405-3.342 0.859 0.33 1.109-0.277 0.794-1.925-0.363-1.898 0.621-3.422 4.656-7.21 7.287-6.841 6.341-11.075-1.418-6.343m167.53-1.48c0 0.207 0.788 0.995 1.75 1.75 1.586 1.243 1.621 1.208 0.378-0.378-1.307-1.666-2.128-2.195-2.128-1.372m-25.022 25.592c1.164 1.633 2.626 3.285 3.25 3.671s-0.125-0.951-1.665-2.97c-3.343-4.382-4.603-4.94-1.585-0.701m-151.4 8.184c-1.933 3.876-1.967 4.418-0.184 2.938 1.181-0.98 2.898-6.092 2.046-6.092-0.159 0-0.996 1.419-1.862 3.154m91.412 0.096c-0.011 1.614-0.255 1.873-0.861 0.916-1.394-2.198-2.124 1.146-2.124 9.728 0 8.478-4.146 23.051-8.083 28.413-1.134 1.544-2.3 4.276-2.591 6.071l-0.53 3.264 6.352-0.411c3.494-0.226 6.714-0.934 7.156-1.571 0.442-0.638 2.14-3.41 3.774-6.16s4.551-6.969 6.483-9.376l3.513-4.377-0.597-10.123c-0.329-5.568-0.844-11.249-1.145-12.624l-0.547-2.5-0.997 2.5c-0.548 1.375-1.075 5.875-1.172 10-0.149 6.396-0.428 7.488-1.895 7.417-7.463-0.362-7.721-0.44-7.721-2.358 0-1.068 0.419-2.2 0.931-2.517 0.776-0.479 1.086-18.541 0.319-18.542-0.137 0-0.257 1.012-0.265 2.25m-129.24 11.376c-2.613 1.961-4.75 3.934-4.75 4.383 0 0.45-1.912 2.222-4.25 3.938-4.699 3.451-16.03 16.001-18.331 20.303-3.692 6.905 4.4 1.463 15-10.087 3.644-3.971 9.315-9.977 12.603-13.348 8.464-8.677 8.31-11.63-0.272-5.189m84.56 3.874c5e-3 3.3 0.192 4.529 0.415 2.732 0.222-1.797 0.218-4.497-0.01-6-0.229-1.503-0.411-0.032-0.405 3.268m79.69-4.068c0 1.828 5.652 5.901 7.018 5.057 0.567-0.351 0.967-0.267 0.888 0.187-0.385 2.216 0.325 3.395 2.844 4.727 1.512 0.8 4.265 2.859 6.117 4.576 1.851 1.717 3.555 2.933 3.785 2.702 0.555-0.555-18.623-18.681-19.765-18.681-0.488 0-0.887 0.644-0.887 1.432m20.954 19.645c-1.765 1.151 4.34 6.852 7.385 6.896 1.601 0.024 1.488-0.393-0.874-3.223-3.458-4.142-4.708-4.847-6.511-3.673m-3.946 2.897c-1.168 0.738-1.224 1.17-0.258 1.993 0.678 0.577 1.016 0.75 0.75 0.383-0.265-0.366 0.019-1.27 0.631-2.008 1.302-1.569 0.956-1.683-1.123-0.368m-23.008 15.404c0 0.207 0.788 0.995 1.75 1.75 1.586 1.243 1.621 1.208 0.378-0.378-1.307-1.666-2.128-2.195-2.128-1.372m-125.25 3.734c-1.833 1.034-2.452 4.888-0.785 4.888 1.157 0 3.295-3.745 2.85-4.993-0.174-0.489-1.096-0.442-2.065 0.105m32.156 8.626c2.133 3.121 13.677 13.877 16.745 15.602 2.763 1.554 5.925-0.242 13.908-7.903 8.272-7.939 4.874-5.841-4.339 2.68-7.288 6.739-6.902 6.871-22.123-7.55-4.439-4.205-5.725-5.073-4.191-2.829m-46.906 6.262c-0.639 1.194-0.937 2.396-0.662 2.671s1.023-0.477 1.662-1.671 0.937-2.396 0.662-2.671-1.023 0.477-1.662 1.671m-21.381 1.876c-2.317 2.418-2.649 3.517-2.403 7.964 0.339 6.163 0.404 6.181 4.956 1.41 3.885-4.073 6.05-9.656 3.34-8.616-0.948 0.364-1.512 3e-3 -1.512-0.968 0-2.743-1.627-2.664-4.381 0.21m166.21-0.408c-0.994 2.181-0.708 2.963 2.473 6.75 8.173 9.729 8.678 10.063 14.19 9.401 2.752-0.331 9.054-0.612 14.004-0.626 6.183-0.016 8.53-0.327 7.5-0.993-0.825-0.533-1.13-0.976-0.679-0.985 1.153-0.021-1.963-3.015-3.138-3.015-0.529 0-0.898-0.787-0.822-1.75 0.207-2.611-13.183-3.214-15.038-0.677-1.136 1.553-1.889 1.127-7.826-4.427-7.223-6.757-8.985-7.365-10.664-3.678m38.667 4.532c-0.34 0.55-0.141 1 0.441 1s1.059-0.45 1.059-1-0.198-1-0.441-1-0.719 0.45-1.059 1m-235.5 7.151v3.849l4.75-6e-3c2.613-4e-3 6.002-0.66 7.533-1.458s2.547-1.07 2.259-0.603c-0.289 0.466 1.112 1.155 3.113 1.53 3.725 0.699 5.937-0.717 4.554-2.915-0.363-0.577-0.53-1.835-0.371-2.798 0.332-2.019-0.215-2.154-2.904-0.715-1.337 0.716-1.934 0.714-1.934-7e-3 0-0.655-3.166-0.984-8.5-0.885l-8.5 0.159v3.849m150.32-2.493c0.362 0.362 0.156 1.262-0.456 2-0.819 0.987-0.817 1.342 9e-3 1.342 0.617 0 1.122-0.188 1.122-0.418s0.273-1.13 0.607-2c0.358-0.932 0.084-1.582-0.667-1.582-0.7 0-0.977 0.296-0.615 0.658m-112.09 18.849c-0.257 5.243 0.868 7.28 2.161 3.911 1.118-2.913 0.674-9.418-0.643-9.411-0.815 4e-3 -1.344 1.92-1.518 5.5m158.77-0.566c0 1.682 0.173 3.059 0.383 3.059 0.849 0 1.288-5.085 0.483-5.583-0.476-0.294-0.866 0.842-0.866 2.524m-36.42 2.632c-5.123 3.482-24.187 22.371-27.166 26.918-5.504 8.4 6.845 2.604 15.141-7.107 2.815-3.295 5.25-5.289 6.072-4.974 0.755 0.29 1.373 0.136 1.373-0.341 0-0.478 1.462-2.387 3.25-4.243s3.752-4.263 4.367-5.35c1.026-1.816 1.989-1.097 11.875 8.863 9.448 9.519 10.937 10.661 12.223 9.374 2.096-2.095 0.036-5.65-7.869-13.575-14.12-14.156-13.19-13.694-19.266-9.565m-102.1 6.331c-5.345 5.353-9.379 10.314-10.115 12.441-1.773 5.122 0.249 4.027 11.13-6.025 4.95-4.573 9.739-8.316 10.643-8.317 3.745-7e-3 2.19 2.885-4.845 9.008-10.574 9.204-10.298 8.895-10.298 11.512 0 4.215 16.235 18.172 19.816 17.035 1.053-0.334 4.766-3.577 8.252-7.207l6.337-6.6-3.218-2.875c-2.075-1.854-4.317-2.876-6.311-2.876-2.871 0-3.044-0.197-2.419-2.75 1.566-6.387 2.936-6.172 10.51 1.646 3.868 3.993 7.033 7.562 7.032 7.932 0 0.37-4.5 4.722-9.999 9.672-10.316 9.286-11.056 10.378-8.482 12.515 1.277 1.06 2.269 0.482 6.25-3.637 2.603-2.693 6.852-6.62 9.443-8.725 2.59-2.106 4.985-4.696 5.322-5.756 0.336-1.059 1.079-1.637 1.651-1.283 0.572 0.353 1.432 0.022 1.912-0.736 2.047-3.23 0.828-5.899-5.3-11.603-3.412-3.176-9.833-9.487-14.27-14.025-10.854-11.101-11.318-11.088-23.041 0.654m101.27 6.209c-3.471 2.85-3.701 3.363-3.122 6.981 0.575 3.596 0.436 3.918-1.753 4.054-1.308 0.081-3.093 0.194-3.966 0.25-2.119 0.136-4.912 2.518-4.912 4.19 0 0.738 2.919 4.276 6.487 7.862 7.733 7.771 8.236 7.718 18.263-1.916 8.139-7.819 8.187-9.434 0.538-17.793-6.868-7.504-6.828-7.491-11.535-3.628m-21.136 20.442c-0.614 1.602 3.05 7.445 4.669 7.445 0.5 0 3.44 2.738 6.533 6.085 5.53 5.984 5.652 6.052 7.278 4.043 0.91-1.124 1.905-1.793 2.211-1.487s0.309-0.388 8e-3 -1.542c-0.302-1.154-1.119-2.099-1.816-2.099-0.696 0-4.398-3.15-8.225-7-6.983-7.025-9.548-8.336-10.658-5.445m115.02 3.884c-1.298 1.981-1.342 2.387-0.213 1.954 0.785-0.301 1.697-1.252 2.027-2.113 0.998-2.6-0.068-2.506-1.814 0.159m-171.46 22.216c-0.838 1.499-0.433 22.27 0.454 23.262 1.248 1.394 1.915-2.502 2.228-13 0.348-11.657-0.368-14.396-2.682-10.262m-66.549 7.793c3.154 4.097 6.173 7.178 6.709 6.846 0.537-0.332 0.708-0.169 0.38 0.361-0.327 0.53 1.227 2.962 3.456 5.405 2.228 2.442 3.54 3.705 2.915 2.807-0.892-1.284-0.797-1.763 0.442-2.239 0.868-0.333 1.322-0.191 1.01 0.314-0.313 0.506-0.131 1.19 0.404 1.521s0.719 1.262 0.409 2.069c-0.356 0.929 0.049 1.468 1.103 1.468 1.067 0 1.396 0.45 0.915 1.25-0.58 0.966-0.393 0.961 0.824-0.026 1.653-1.338 3.477 0.885 2.296 2.797-0.286 0.463 7e-3 1.166 0.651 1.564 0.731 0.452 0.903 0.291 0.457-0.43-1.286-2.082 1.847-1.182 4.075 1.17 3.008 3.176 9.733 5.296 8.299 2.617-0.548-1.024-2.677-3.094-4.732-4.602-2.056-1.508-7.349-6.139-11.765-10.291-10.385-9.766-22.158-20.049-22.956-20.049-0.344 0 1.955 3.352 5.108 7.448m47.376 1.552c-1.293 0.835-1.266 0.971 0.191 0.985 0.93 8e-3 1.969-0.435 2.309-0.985 0.782-1.266-0.542-1.266-2.5 0m-37.297 9.397c0.988 1.318 2.157 2.178 2.597 1.91 0.439-0.267-0.192-1.346-1.403-2.397-2.962-2.568-3.362-2.405-1.194 0.487m-14.673 2.091c2.884 3.903 6.263 7.18 5.166 5.012-0.557-1.1-2.278-3.125-3.824-4.5-1.936-1.721-2.354-1.881-1.342-0.512m-11.03 2.453c0 0.518 0.445 1.216 0.989 1.552 0.566 0.35 0.734-0.051 0.393-0.941-0.665-1.732-1.382-2.049-1.382-0.611m86 3.028c0 0.532 0.675 0.709 1.5 0.393 0.825-0.317 1.5-0.753 1.5-0.969s-0.675-0.393-1.5-0.393-1.5 0.436-1.5 0.969m-57 13.531c1.866 1.925 3.617 3.5 3.892 3.5s-1.026-1.575-2.892-3.5-3.617-3.5-3.892-3.5 1.026 1.575 2.892 3.5m160.5 61.359c-4.828 2.19-21.633 7.721-26.5 8.722-1.925 0.395-2.98 0.9-2.345 1.121 2.058 0.715 20.408-4.679 27.727-8.151 3.915-1.857 6.668-3.406 6.118-3.442s-2.8 0.752-5 1.75m-59.5 14.141-4.5 0.7 5.309 0.15c3.319 0.094 5.077-0.225 4.691-0.85-0.34-0.55-0.704-0.932-0.809-0.85-0.105 0.083-2.216 0.465-4.691 0.85m10.813-0.317c0.721 0.289 1.584 0.253 1.916-0.079s-0.258-0.568-1.312-0.525c-1.165 0.048-1.402 0.285-0.604 0.604" fill="#4a718e" stroke="#4a718e"/>
  <path d="m225.47 68.92c-23.857 2.306-60.495 15.255-78.22 27.646-3.489 2.439-6.593 4.434-6.898 4.434-1.425 0-16.651 13.662-23.568 21.147-10.745 11.629-22.945 29.023-21.422 30.545 1.561 1.561 4.273 0.895 4.21-1.034-0.038-1.198 0.477-2.05 1.159-1.915 0.676 0.133 1.925-1.104 2.776-2.75s1.876-2.993 2.278-2.993c0.401 0 1.278-1.238 1.948-2.75s3.922-5.618 7.227-9.123 5.765-6.768 5.467-7.25 0.068-0.877 0.814-0.877 3.135-1.842 5.309-4.094 4.977-4.495 6.228-4.985 3.203-2.464 4.338-4.388c2.327-3.944 18.905-15.622 28.105-19.798 3.145-1.427 7.711-3.966 10.145-5.641 2.435-1.675 6.612-3.577 9.282-4.226 2.67-0.65 9.355-2.436 14.855-3.97 32.19-8.976 74.619-8.113 108.49 2.208 7.776 2.369 27.899 11.47 30.01 13.573 2.214 2.204 18.234 12.321 19.511 12.321 0.603 0 2.647 1.633 4.543 3.63 1.895 1.996 5.415 4.901 7.821 6.455 4.547 2.936 14.074 13.006 20.125 21.271 1.925 2.63 4.931 6.41 6.68 8.401s4.428 6.573 5.954 10.182c1.526 3.608 3.286 7.085 3.913 7.726 0.627 0.64 1.615 2.44 2.196 4 4.038 10.837 5.607 14.335 6.429 14.335 1.329 0 5.094 8.864 4.463 10.508-0.7 1.825 2.314 12.56 4.122 14.679 0.791 0.928 1.112 2.216 0.713 2.862s-0.209 1.494 0.423 1.885c0.651 0.402 1.62 5.865 2.235 12.59 0.597 6.534 1.419 12.781 1.827 13.883 0.407 1.101 0.327 3.823-0.178 6.048-0.899 3.958-0.627 9.65 0.786 16.437 0.542 2.606 0.413 3.211-0.559 2.61-1.001-0.618-1.116 0.813-0.551 6.841 0.599 6.393 0.376 8.599-1.38 13.674-1.299 3.754-1.845 7.044-1.438 8.666 0.427 1.698 0.292 2.39-0.382 1.973-1.165-0.72-2.644 3.902-1.725 5.39 0.325 0.525 0.058 0.954-0.591 0.954-0.901 0-0.905 0.334-0.018 1.403 0.894 1.077 0.865 1.523-0.127 1.921-0.966 0.387-0.98 0.538-0.055 0.597 2.582 0.165 6.492-13.7 8.802-31.22 5.227-39.626-3.069-81.141-22.722-113.7-9.027-14.957-22.318-32.234-31.989-41.585-9.883-9.555-39.011-29.785-46.018-31.959-1.27-0.394-4.785-1.955-7.81-3.469s-8.425-3.53-12-4.479c-3.575-0.95-7.85-2.312-9.5-3.027-10.637-4.607-53.483-7.741-76.033-5.561m12.033 23.235c-2.75 0.506-8.375 1.324-12.5 1.819-16.834 2.02-39.726 9.318-54.248 17.295-2.339 1.284-6.332 3.115-8.873 4.067-3.261 1.221-7.662 4.675-14.947 11.73-5.68 5.5-12.375 11.923-14.879 14.274-8.016 7.525-15.492 18.216-22.285 31.865-9.629 19.349-10.925 22.886-16.172 44.134-4.66 18.868-4.094 61.044 0.981 73.191 0.868 2.077 1.955 6.095 2.416 8.93 3.963 24.347 27.946 60.044 56.142 83.562 7.21 6.014 28.576 18.781 36.365 21.73 17.864 6.762 28.514 9.88 37 10.832 2.2 0.247 7.195 0.943 11.101 1.548 12.163 1.884 41.074-1.052 57.399-5.828 14.926-4.368 23.097-8.369 38.789-18.994 2.591-1.754 6.452-4.153 8.58-5.331 9.205-5.094 33.082-30.869 42.129-45.479 9.032-14.585 17.426-33.162 19.55-43.264 0.493-2.346 1.407-5.218 2.031-6.384 0.624-1.165 1.255-3.746 1.403-5.735 0.147-1.989 0.865-10.031 1.595-17.87 2.848-30.604-4.886-70.716-18.845-97.747-2.1-4.067-10.747-15.832-18.47-25.133-12.818-15.436-42.409-36.771-56.121-40.464-2.271-0.611-5.707-1.898-7.635-2.86-1.928-0.961-5.685-2.281-8.349-2.933-2.663-0.652-5.813-1.793-7-2.535-2.024-1.267-10.027-2.579-19.157-3.141-2.2-0.136-7.813-0.739-12.474-1.34-9.759-1.26-16.44-1.242-23.526 0.061m-3 15.833c-3.3 0.466-10.05 1.295-15 1.842-4.95 0.548-11.025 1.629-13.5 2.404l-4.5 1.408 7.5 0.723c11.867 1.144 13.768 1.639 14.314 3.729 0.454 1.734 1.57 1.913 12.342 1.982 6.514 0.042 18.256 0.199 26.094 0.349l14.25 0.273v-2.29c0-3.28 0.97-3.574 11.789-3.578 11.66-4e-3 10.176-1.701-3.289-3.762-4.4-0.674-10.25-1.68-13-2.237-6.76-1.369-29.59-1.889-37-0.843m126.5 3.012c0 0.55 0.477 1 1.059 1s0.781-0.45 0.441-1-0.816-1-1.059-1-0.441 0.45-0.441 1m-79.25 6.651c-1.997 0.566-2.595 8.349-0.642 8.349 4.549 0 24.892 20.636 24.892 25.251v3.138l-2.25-2.987c-1.238-1.642-7.862-8.489-14.721-15.215l-12.471-12.23-29.215 0.272-29.216 0.271-1.218-6.5h-23.909l-0.068 2.75c-0.066 2.701-0.087 2.71-1.152 0.5-0.597-1.237-1.487-2.25-1.979-2.25-0.83 0-17.576 7.693-22.483 10.328-3.086 1.657-15.235 11.691-17.73 14.643-1.148 1.359-4.593 5.184-7.655 8.5-11.851 12.836-17.811 22.519-25.562 41.529-1.906 4.675-3.686 8.98-3.955 9.566-0.597 1.302 11.506 0.659 13.206-0.701 0.617-0.493 2.132-3.702 3.367-7.131 1.234-3.429 2.816-6.909 3.514-7.734s2.695-4.2 4.438-7.5c11.705-22.17 46.788-50.237 48.899-39.119 0.812 4.278-1.806 6.619-7.402 6.619-6.369 0-6.576 0.395-5.758 11 0.48 6.225 0.327 8-0.687 8-0.717 0-2.779 1.125-4.582 2.5s-3.567 2.5-3.92 2.5c-0.797 0-18.871 18.481-25.591 26.167l-4.954 5.667 16.037-0.49 7.259-6.807c3.992-3.743 9.391-9.108 11.997-11.922 4.398-4.747 4.74-4.933 4.75-2.582 0.013 3.095-21.612 25.092-24.617 25.041-14.252-0.247-40.182 0.691-41.49 1.499-0.604 0.373-0.75 1.759-0.346 3.286 0.384 1.453 0.615 16.695 0.514 33.873-0.203 34.352-0.189 34.442 6.037 38.864 1.623 1.152 10.05 9.027 18.727 17.5 15.701 15.331 29.146 27.68 31.796 29.204 0.764 0.44 1.39 1.254 1.39 1.809s-0.52 0.688-1.155 0.296c-0.721-0.446-0.882-0.274-0.43 0.457 0.398 0.644 1.195 0.879 1.771 0.523s4.257 2.535 8.18 6.424c3.924 3.888 8.429 8.136 10.012 9.439 2.231 1.837 2.719 2.87 2.172 4.596-0.704 2.218-0.715 2.215-2.851-0.559-1.179-1.532-3.056-3.451-4.171-4.266-1.116-0.815-7.242-6.215-13.614-12-14.866-13.496-22.234-20.019-22.613-20.019-4.78 0 26.556 35.812 35.199 40.226 2.2 1.124 5.074 3.108 6.386 4.409 4.521 4.481 5.282 2.704 5.195-12.135-0.115-19.648 0.622-18.036-15.48-33.833-7.756-7.607-15.226-14.732-16.601-15.832s-8.463-7.841-15.75-14.98l-13.25-12.979 6e-3 -20.688c6e-3 -23.884 0.678-27.74 4.996-28.689 3.306-0.726 4.998-0.051 4.998 1.994 0 1.564 3.551 2.168 9.75 1.656 4.342-0.358 5.643-1.638 2.5-2.46-0.963-0.251 0.88-0.509 4.095-0.573l5.845-0.116 12.155-11.763c14.136-13.68 22.198-19.87 23.036-17.686 0.356 0.927-0.318 1.646-1.916 2.047-3.311 0.831-3.138 1.469 1.535 5.665 5.82 5.224 5.338 5.737-5.393 5.737-10.415 0-10.607 0.125-10.607 6.898 0 5.569-1.869 14.632-4.084 19.798-2.305 5.377-7.94 12.816-8.81 11.63-1.179-1.607-3.047-1.335-2.4 0.35 0.425 1.108 0.249 1.414-0.536 0.929-1.532-0.947-1.51 0.655 0.03 2.195 0.933 0.933 0.92 1.2-0.059 1.2-0.692 0-0.981 0.45-0.641 1s-0.012 1-0.782 1c-2.327 0-21.065 17.861-23.343 22.25-1.229 2.369-1.23 2.75-9e-3 2.75 1.963 0 19.634 17.424 19.634 19.359 0 0.864 1.012 2.113 2.25 2.775s2.25 1.096 2.25 0.965c0-1.504 6.59 3.285 12.829 9.324 4.306 4.167 8.232 7.577 8.724 7.577 0.493 0 1.631 1.462 2.529 3.25 0.899 1.788 2.458 3.925 3.466 4.75 1.654 1.355 1.86 3.566 2.115 22.802 0.155 11.716 0.588 21.795 0.961 22.399 0.45 0.728 2.65 0.863 6.527 0.403 10.159-1.207 85.661-0.717 86.451 0.56 0.386 0.626 1.498 0.82 2.5 0.435 0.992-0.38 5.271-0.844 9.51-1.03s8.097-0.58 8.574-0.875 0.743-9.594 0.591-20.665c-0.29-21.148 0.144-23.817 4.407-27.054 1.554-1.18 1.636-1.176 0.566 0.023-0.687 0.771-1.25 1.825-1.25 2.342 0 0.986 1.644-0.454 16.429-14.391 4.989-4.703 12.409-11.453 16.488-15 4.08-3.547 10.055-9.513 13.278-13.257l5.861-6.809-4.778-5.334c-2.628-2.934-7.13-7.185-10.005-9.447-5.55-4.366-8.273-8.458-8.273-12.431v-2.429l15.377-0.72 15.377-0.721-0.522-6.502c-0.39-4.861-0.177-6.715 0.844-7.346 0.751-0.464 1.06-1.15 0.686-1.524s-1.863 0.726-3.31 2.445c-2.598 3.089-2.741 3.126-11.934 3.126-7.696 0-9.413 0.283-9.933 1.638-0.503 1.312-1.872 0.466-6.88-4.25-3.439-3.238-7.592-7.13-9.229-8.648s-5.226-5.396-7.976-8.619c-6.2-7.265-7.582-7.956-14.715-7.358l-5.715 0.479 0.965-3.364c1.312-4.575 1.309-4.577-1.612-1.284l-2.576 2.906 1.836-3.537c4.568-8.798 7.812-10.561 10.118-5.499 0.59 1.294 3.239 3.826 5.886 5.626s5.227 3.963 5.734 4.807c1.166 1.944 3.644 4.335 10.993 10.603 3.224 2.75 6.362 5.46 6.974 6.023 0.611 0.563 5.612 1.1 11.112 1.192 5.859 0.099 9.172-0.164 8-0.635-1.535-0.617-0.738-0.979 3.427-1.56 4.442-0.619 5.642-0.463 6.61 0.862 0.651 0.89 1.647 1.618 2.214 1.618 1.668 0 1.993 6.255 1.462 28.102-0.362 14.871-0.184 20.798 0.643 21.309 3.52 2.175-0.495 6.473-4.778 5.114-1.966-0.624-13.257 9.464-32.578 29.109-4.4 4.474-10.925 10.697-14.5 13.831-3.575 3.133-7.988 7.122-9.806 8.866l-3.306 3.169 0.306 15.618 0.306 15.619 4.5-3.053c11.61-7.875 20.271-15.256 29-24.716 8.663-9.389 19.955-23.968 18.565-23.968-0.315 0-6.61 5.512-13.989 12.25-36.091 32.954-33.95 31.25-34.866 27.75-0.287-1.1-0.172-2 0.257-2 0.848 0 32.57-29.17 37.668-34.638 1.724-1.849 3.631-3.362 4.237-3.362 0.607 0 5.989-4.837 11.961-10.75s14.527-14.143 19.012-18.289c7.539-6.969 8.157-7.838 8.183-11.5 0.315-44.74 0.548-51.82 1.722-52.211 1.874-0.625 1.53-5.994-0.454-7.104-1.432-0.802-1.518-1.364-0.538-3.514 1.624-3.565 1.764-3.538-19.65-3.738-22.08-0.206-19.234 0.853-33.116-12.32-4.68-4.441-9.742-9.084-11.25-10.317-2.697-2.207-2.742-2.432-2.742-13.595 0-8.36 0.488-12.83 1.851-16.963l1.852-5.612-3.102-1.459c-1.994-0.939-4.737-1.271-7.684-0.933-4.344 0.5-4.646 0.372-5.817-2.453-1.521-3.673-2.02-21.742-0.6-21.742 0.573 0 0.877 2.161 0.711 5.06-0.287 5.017-0.239 5.108 5.604 10.5 3.242 2.992 7.963 6.699 10.492 8.238 2.529 1.538 6.421 4.688 8.649 7 7.596 7.882 15.812 17.401 17.093 19.804 0.703 1.319 2.984 4.662 5.07 7.43 2.085 2.767 5.015 7.717 6.51 11 4.798 10.535 7.565 13.03 13.997 12.623 6.573-0.416 6.611 0.136-1.098-15.678-10.24-21.003-22.298-36.429-40.143-51.353-8.614-7.205-26.523-18.208-30.885-18.974-3.469-0.61-26.92-1.017-28.75-0.499m-69.786 11.106c-1.395 0.958-4.729 4.116-7.409 7.017-4.689 5.074-4.801 5.331-2.964 6.812 1.782 1.435 1.662 1.498-1.787 0.941-4.134-0.668-6.284 1.573-5.54 5.775 0.379 2.142 0.413 2.147 1.313 0.198 0.507-1.1 1.546-2.133 2.308-2.295 2.423-0.516 10.115-6.251 10.115-7.541 0-0.682 2.018-2.927 4.485-4.989 5.919-4.948 7.45-7.677 4.3-7.668-1.257 3e-3 -3.426 0.791-4.821 1.75m172.78 5.832c1.191 1.699 2.956 3.724 3.922 4.5 1.315 1.056 1.213 0.633-0.406-1.678-1.191-1.699-2.956-3.724-3.922-4.5-1.315-1.056-1.213-0.633 0.406 1.678m-150.74 5.489c-7.035 0.892-23.213 5.75-22.601 6.786 0.207 0.35 0.658 7.677 1.003 16.282 1.203 30.043 10.245 50.617 29.71 67.604 8.175 7.134 8.797 7.015 20.33-3.9 11.573-10.953 14.452-14.955 19.497-27.101 7.159-17.237 8.062-21.404 8.048-37.104l-0.014-14.145-4.736-1.674c-2.606-0.92-8.562-3.048-13.237-4.728-8.944-3.215-18.257-4.109-19.632-1.885-0.412 0.667-1.037 10.68-1.389 22.25l-0.64 21.037-0.169-22.25-0.17-22.25-4.75 0.127c-2.613 0.07-7.675 0.498-11.25 0.951m-143.3 19.172c-2.884 4.927-10.703 22.941-10.703 24.657 0 0.64-0.648 2.16-1.44 3.378-3.922 6.031-9.531 30.785-10.264 45.298-0.496 9.813-0.373 11.084 1.072 11.084 0.898 0 1.632-0.375 1.632-0.834 0-0.458-0.45-0.833-1-0.833-1.456 0-1.227-2.239 0.607-5.914 1.067-2.139 1.72-6.644 1.943-13.404l0.393-11.893c0.031-0.941 0.897-2.516 1.924-3.5 1.536-1.473 4.288-9.709 4.186-12.532-0.015-0.408 0.867-2.334 1.96-4.28s1.987-4.153 1.987-4.905 1.12-3.326 2.49-5.72c1.369-2.394 3.015-5.927 3.656-7.852 0.642-1.925 2.274-5.176 3.627-7.225 1.654-2.506 2.207-4.307 1.686-5.5-0.426-0.976-0.684-2.337-0.573-3.025 0.367-2.276-0.665-1.303-3.183 3m214.3 9.917c0 3.641 0.437 3.509 1.378-0.417 0.392-1.633 0.246-2.75-0.359-2.75-0.56 0-1.019 1.425-1.019 3.167m24 1.782c0 1.072 1.603 3.172 3.562 4.666 2.974 2.268 3.516 3.257 3.282 5.978-0.232 2.69 0.501 4.076 4.187 7.921 13.92 14.517 15.836 15.821 19.02 12.94 1.763-1.596 2.205-1.658 2.968-0.423 0.668 1.08 1.187 1.163 2.029 0.321 1.622-1.622-30.9-33.352-34.186-33.352-0.474 0-0.862 0.877-0.862 1.949m-23.975 10.508c-1.235 1.499-2.481 1.696-7.653 1.213-5.963-0.557-6.2-0.49-6.806 1.923-0.345 1.374-0.319 2.998 0.058 3.607 0.378 0.613 0.234 0.831-0.321 0.487-0.553-0.342-1.509 1.058-2.124 3.11-0.615 2.053-2.257 5.275-3.649 7.162-2.697 3.655-3.342 7.613-1.28 7.853 0.688 0.08 3.281 0.414 5.764 0.743l4.514 0.597 2.236-4.603c1.23-2.531 2.236-5.292 2.236-6.135s0.41-1.279 0.912-0.969c1.965 1.215 8.231-9.161 7.9-13.081-0.288-3.416-0.424-3.562-1.787-1.907m-111.02 3.046c0 2.438 1.098 4.529 4.275 8.139 2.35 2.672 5.163 6.578 6.25 8.681 2.591 5.016 3.61 5.774 9.159 6.81 5.372 1.004 7.863 2.899 8.792 6.691 1.235 5.035 7.801 20.673 9.731 23.176 8.133 10.548 14.209 13.458 24.191 11.585 5.993-1.124 18.709-22.203 18.563-30.773-0.034-1.961-0.984-1.292-6.25 4.396-8.725 9.423-15.597 14.792-18.932 14.792-2.429 0-7.708-3.938-15.349-11.449-6.308-6.201-15.287-21.813-20.909-36.355-1.846-4.775-3.477-7.752-3.795-6.925-0.96 2.502-4.347 2.577-10.137 0.224l-5.589-2.272v3.28m40.229-1.315c0.618 1.854 2.771 2.161 2.771 0.395 0-0.87-0.713-1.583-1.583-1.583-0.871 0-1.406 0.534-1.188 1.188m62.104 11.268c0 0.801 0.383 1.22 0.85 0.931s0.591-0.944 0.274-1.456c-0.808-1.308-1.124-1.161-1.124 0.525m8.667 4.603c0 0.582 0.45 0.781 1 0.441s1-0.816 1-1.059-0.45-0.441-1-0.441-1 0.477-1 1.059m-136.74 24.263c-4.98 3.756-9.265 9.297-9.265 11.979 0 1.276-0.492 1.724-1.476 1.347-2.201-0.845-20.605-0.951-23.774-0.137-2.397 0.615-2.75 1.196-2.75 4.53 0 4.815 0.161 4.86 16.309 4.52l12.808-0.27 4.024-3.895c5.061-4.9 6.399-7.458 7.763-14.835 1.337-7.234 1.485-7.103-3.639-3.239m151.74 0.71c0 7.067 10.325 20.691 13.125 17.317 0.86-1.036 0.264-2.283-2.616-5.471-3.169-3.507-3.649-4.631-3.189-7.464 0.48-2.955 0.164-3.57-2.757-5.375-4.296-2.655-4.563-2.597-4.563 0.993m-122.25 15.784c-1.926 0.222-4.466 2.279-8.5 6.884-3.164 3.613-7.197 8.157-8.961 10.098-3.208 3.529-3.443 5.202-0.733 5.202 2.104 0 1.76 2.663-0.553 4.283-1.096 0.768-1.759 1.631-1.472 1.917 0.286 0.287-1.115 1.768-3.113 3.292-9.723 7.417-7.067 22.733 5.857 33.774 2.994 2.558 7.193 6.959 9.333 9.781 8.105 10.693 15.34 12.305 19.948 4.443 1.447-2.47 3.052-4.231 3.565-3.913 0.514 0.317 1.934-0.323 3.155-1.422 1.222-1.1 5.371-4.787 9.221-8.193 3.85-3.407 8.193-8.094 9.651-10.416 2.601-4.142 12.664-13.546 14.495-13.546 0.511 0 2.488 1.332 4.392 2.959 1.904 1.628 4.137 2.985 4.962 3.016 1.278 0.047 1.29 0.189 0.076 0.957-1.094 0.692 2.559 4.856 15.767 17.97 17.109 16.987 19.768 18.927 23.842 17.4 2.756-1.034 10.3-8.016 10.364-9.592 0.027-0.666 1.824-3.01 3.993-5.21s3.947-4.31 3.951-4.688c4e-3 -0.379 1.375-2.179 3.047-4 9.996-10.888 10.978-21.082 2.96-30.716-5.823-6.998-5.723-6.698-2.5-7.507 3.935-0.987 3.168-2.257-8.001-13.252-9.692-9.54-10.801-10.337-14.386-10.337-5.879 0-12.684 4.145-18.165 11.065-3.174 4.008-3.429 6.409-0.416 3.908 0.87-0.721 1.484-0.898 1.366-0.392-0.119 0.505 0.141 1.737 0.576 2.737 0.608 1.396-0.225 2.771-3.591 5.926-4.102 3.845-4.747 4.104-10.06 4.037-3.122-0.04-6.133-0.354-6.69-0.699-0.645-0.398-0.819 0.578-0.478 2.68 0.478 2.943 0.034 3.77-4.037 7.522-4.177 3.851-7.618 5.401-7.618 3.432 0-0.432-2.524-2.907-5.609-5.5-3.084-2.594-5.222-4.746-4.75-4.783 0.473-0.038-1.166-0.67-3.641-1.405a557.79 557.79 0 0 1-6.75-2.049c-1.772-0.561-2.267-0.316-2.329 1.154-0.06 1.429-0.216 1.515-0.662 0.367-0.321-0.825-1.15-1.95-1.843-2.5s-1.924-2.633-2.736-4.63c-1.402-3.443-1.38-3.604 0.421-3.133 1.045 0.273 1.899 0.248 1.899-0.055 0-1.754-12.348-15.715-14.246-16.108-3.833-0.792-8.131-1.088-11.001-0.758m-130.14 11.727c-0.793 8.043 0.775 27.568 2.806 34.957 0.756 2.75 1.682 6.8 2.057 9 1.389 8.13 10.797 34.126 14.296 39.5 0.895 1.375 2.702 4.525 4.015 7 9.736 18.35 43.727 57.982 46.262 53.941 0.861-1.372-5.138-7.802-7.374-7.903-1.359-0.062-12.676-11.247-12.676-12.528 0-0.651-2.032-3.089-4.515-5.416-2.483-2.328-5.36-5.888-6.393-7.913-1.034-2.025-2.827-4.538-3.986-5.586-1.158-1.048-2.106-2.585-2.106-3.416s-0.689-2.224-1.532-3.095c-4.432-4.584-6.444-7.937-7.921-13.201-0.898-3.199-2.018-6.056-2.489-6.347s-1.392-2.758-2.045-5.481-2.301-6.153-3.662-7.621c-1.411-1.523-2.224-3.323-1.892-4.188 0.321-0.835-0.37-4.045-1.534-7.132-1.165-3.088-2.756-9.819-3.537-14.958-0.78-5.139-1.896-10.237-2.479-11.327-0.584-1.09-1.32-7.91-1.636-15.156-0.317-7.245-1.113-14.743-1.771-16.663-1.195-3.487-1.197-3.484-1.888 3.533m298.14 2.206c-0.962 0.219-1.75 0.841-1.75 1.383s-0.357 0.766-0.793 0.496c-0.435-0.269-0.893 0.829-1.015 2.441-0.123 1.612 0.181 2.931 0.675 2.931 0.495 0 1.117 0.832 1.383 1.849 0.266 1.016 1.443 2.099 2.617 2.406 1.998 0.522 2.133 0.187 2.133-5.29 0-6.128-0.386-6.866-3.25-6.216m-86.75 2.133c0 0.55 0.45 1.278 1 1.618s1 0.168 1-0.382-0.45-1.278-1-1.618-1-0.168-1 0.382m-88.612 8.618c-8.51 8.392-15.173 14.348-16.041 14.339-1.248-0.013-1.089 0.852 0.559 3.036 2.488 3.298 6.113 1.299 17.215-9.494 8.79-8.545 10.253-9.455 11.205-6.975 0.517 1.348-0.451 2.476-4.826 5.621l-2 1.439 4-4.898-2.5 1.618c-1.375 0.89-2.433 2.367-2.35 3.282 0.083 0.916-0.045 1.47-0.283 1.232-0.239-0.238-1.982 1.115-3.875 3.008s-3.79 3.226-4.217 2.962c-0.426-0.263-0.616 1.516-0.422 3.955 0.365 4.584 6.958 11.854 15.864 17.493l3.122 1.976 7.02-6.042c10.517-9.051 10.973-9.922 6.972-13.302-2.139-1.807-4.406-2.75-6.611-2.75-3.311 0-3.905-2.422-1.291-5.267 0.937-1.02 6.643 3.543 11.424 9.135l3.852 4.507-2.852 2.048c-1.569 1.126-5.873 4.866-9.563 8.312-3.691 3.446-7.001 6.265-7.355 6.265-2.302 0-11.218-5.696-15.196-9.708-6.871-6.929-14.059-12.046-11.809-8.406 0.301 0.488-0.347 1.121-1.441 1.407-4.442 1.161-2.316 4.871 9.417 16.431l11.405 11.238 3.345-1.123c1.839-0.617 4.131-1.803 5.094-2.636 0.963-0.832 1.75-1.224 1.75-0.87s4.783-4.076 10.629-9.845c5.846-5.768 11.032-10.488 11.525-10.488 1.593 0 2.927-4.979 1.865-6.964-0.539-1.008-4.023-4.691-7.74-8.185-3.718-3.493-9.239-8.896-12.269-12.007-10.93-11.219-12.57-11.243-23.622-0.344m103.56-7.169c-3.849 1.762-28.822 27.326-29.558 30.259-1.584 6.311 4.38 4.314 13.544-4.536 1.962-1.895 3.862-3.372 4.222-3.282s1.202-0.497 1.873-1.304c0.747-0.9 0.816-1.468 0.179-1.468-0.572 0-1.266 0.563-1.544 1.25-0.291 0.722-0.537 0.787-0.583 0.155-0.151-2.088 3.518-4.603 4.64-3.18 2.695 3.417 2.391 6.592-0.695 7.27-1.637 0.359-3.371 0.409-3.854 0.11-0.484-0.299-1.907 0.551-3.164 1.889-2.696 2.869-1.834 4.813 5.182 11.69 6.005 5.887 8.52 7.304 10.315 5.813 5.579-4.63 14.353-13.866 14.923-15.709 1.022-3.302-2.277-8.286-10.9-16.469-3.16-3-3.72-4.025-2.734-5.011s3.27 0.784 11.166 8.65c10.887 10.846 11.01 11.233 5.198 16.406-1.704 1.517-2.029 2.155-0.906 1.781 1.294-0.431 1.75-0.038 1.75 1.509 0 1.838-0.205 1.925-1.692 0.718-0.931-0.754-1.397-0.878-1.036-0.275 0.362 0.603-0.772 2.403-2.519 4s-2.589 2.131-1.87 1.187c2.978-3.913 0.204-3.678-4.308 0.364-7.86 7.042-8.014 7.113-11.894 5.492-1.868-0.781-5.148-3.522-7.289-6.093-5.843-7.016-9.767-9.207-12.286-6.86-1.923 1.791-1.903 1.867 1.486 5.564 1.889 2.062 3.711 3.749 4.048 3.749 0.338 0 4.1 3.6 8.36 8 8.346 8.62 8.468 8.68 13.282 6.629 3.36-1.432 8.851-6.629 7.003-6.629-2.125 0-0.704-3.489 2.632-6.458 2.242-1.996 3.56-2.612 3.833-1.792 0.229 0.688 0.877 1.25 1.44 1.25s0.756-0.698 0.428-1.552c-0.327-0.854-0.191-1.302 0.302-0.997 2.005 1.238 6.08-5.492 6.08-10.041 0-2.441 0.516-5.263 1.146-6.273 0.631-1.009 0.868-2.916 0.528-4.236-0.961-3.727-20.697-23.06-23.296-22.82-0.483 0.045-2.027 0.607-3.432 1.25m-156.39 2.254c-1.887 1.38-1.881 1.419 0.256 1.565 1.205 0.083 2.641 0.195 3.191 0.25s1-0.237 1-0.65-0.287-0.712-0.638-0.665-0.917-0.364-1.257-0.914c-0.388-0.63-1.335-0.476-2.552 0.414m259.85 6.665-1.905 2.25 2.25-1.905c2.114-1.79 2.705-2.595 1.905-2.595-0.19 0-1.202 1.012-2.25 2.25m-285.37 25.432c0.452 11.989 5.516 26.212 16.669 46.818 10.085 18.634 34.666 41.2 58.595 53.791 25.991 13.676 66.919 19.04 91.705 12.018 3.025-0.857 9.669-2.601 14.765-3.876 5.095-1.275 10.495-3.173 12-4.218 1.504-1.046 7.46-4.533 13.235-7.75 11.699-6.517 12.771-7.31 25.453-18.832 11.405-10.36 13.266-12.302 16.184-16.883 1.313-2.062 2.802-3.75 3.308-3.75 1.108 0 9.186-13.42 14.765-24.528 4.155-8.274 8.7-21.892 9.69-29.031l0.563-4.059-8.343 8.059c-5.052 4.879-8.792 9.399-9.481 11.456-1.523 4.548-9.624 19.325-12.506 22.812-1.269 1.535-4.162 5.609-6.431 9.053-10.772 16.356-42.355 39.531-58.202 42.707-1.925 0.385-7.775 2.076-13 3.756-9.001 2.894-10.31 3.049-24.915 2.945-33.87-0.24-54.806-5.959-78.085-21.331-19.706-13.012-49.171-50.422-46.455-58.98 0.535-1.685-0.784-3.569-6.689-9.553-7.561-7.661-12.88-12.067-12.825-10.624m196.05 2.901c0.048 1.165 0.285 1.402 0.604 0.605 0.289-0.722 0.253-1.585-0.079-1.917s-0.568 0.258-0.525 1.312m112.92 13.476c0 0.582 0.45 0.781 1 0.441s1-0.816 1-1.059-0.45-0.441-1-0.441-1 0.477-1 1.059m-1.441 5.455c-1.832 4.384-1.846 4.486-0.606 4.486 0.983 0 3.317-7.063 2.578-7.802-0.227-0.228-1.115 1.264-1.972 3.316m-3.748 8.705c-1.634 2.553-2.953 5.781-2.361 5.781 0.743 0 4.774-7.109 4.3-7.584-0.264-0.263-1.136 0.548-1.939 1.803m-130.73 3.364c0.048 1.165 0.285 1.402 0.604 0.605 0.289-0.722 0.253-1.585-0.079-1.917s-0.568 0.258-0.525 1.312m121.87 13.514c-1.15 2.253-1.919 4.268-1.709 4.478 0.209 0.21 1.36-1.634 2.556-4.097 2.726-5.609 1.989-5.941-0.847-0.381m-125.95 3.569c-8.714 1.373-8.885 2.287-0.568 3.027 5.143 0.458 5.568 0.336 5.568-1.599 0-2.089-0.284-2.171-5-1.428m96.964 36.498c-1.145 2.233-1.118 2.26 0.61 0.61 0.994-0.95 1.533-2.001 1.197-2.336-0.335-0.335-1.148 0.442-1.807 1.726m-234.41 21.751a1.116 1.116 0 0 0 0.362 1.532c0.521 0.322 1.21 0.159 1.532-0.362a1.116 1.116 0 0 0-0.362-1.532 1.116 1.116 0 0 0-1.532 0.362m3.169 1.726c-1.035 1.674 29.169 19.907 31.596 19.075 0.65-0.223 3.657 0.839 6.682 2.359 5.467 2.749 16.943 6.925 19.027 6.925 2.208 0-0.082-1.761-3.065-2.358-1.694-0.338-5.859-1.971-9.256-3.629-3.397-1.657-6.661-3.013-7.253-3.013-0.593 0-2.94-0.9-5.217-2s-4.994-2-6.038-2c-1.909 0-8.497-4.341-13.178-8.684-1.386-1.285-3.146-2.097-3.91-1.804-0.765 0.293-2.033-0.385-2.819-1.506-0.785-1.122-1.847-1.78-2.359-1.464-0.513 0.317-0.932 0.073-0.932-0.542s-0.412-0.864-0.915-0.553-1.095 0.022-1.317-0.642c-0.265-0.795-0.622-0.851-1.046-0.164m192.15 8.023c-1.244 1.508-1.162 1.552 0.878 0.465 2.327-1.24 2.9-2.129 1.372-2.129-0.482 0-1.495 0.749-2.25 1.664m-132.2 19.348c1.374 1.27 5.646 2.315 4.966 1.215-0.336-0.544-1.776-1.211-3.201-1.483-1.425-0.273-2.219-0.152-1.765 0.268m10.447 3.442c0.782 0.782 7.773 0.986 8.51 0.248 0.386-0.386-1.473-0.702-4.131-0.702s-4.629 0.204-4.379 0.454" fill="#1b242c" stroke="#1b242c"/>
 </g>
</svg>
